%FSLAX45Y45*%
G04 Gerber Fmt 4.5, Leading zero omitted, Abs format (unit mm)*
G04 Created by KiCad (PCBNEW (6.0.5-0)) date 2022-05-25 13:52:43*
%MOMM*%
%LPD*%
G01*
G04 APERTURE LIST*
%TA.AperFunction,Profile*%
%ADD10C,0.254000*%
%TD*%
%ADD11C,0.200000*%
%ADD12C,0.040000*%
%ADD13C,0.050800*%
%ADD14C,0.080000*%
%ADD15C,0.088900*%
%ADD16C,0.090000*%
%ADD17C,0.101600*%
%ADD18C,0.114300*%
%ADD19C,0.205740*%
G04 APERTURE END LIST*
D10*
X-6272400Y12020700D02*
X-6272400Y933600D01*
X-6272400Y933600D02*
X-12139800Y933600D01*
X-12139800Y12020700D02*
X-6272400Y12020700D01*
X-12139800Y933600D02*
X-12139800Y12020700D01*
D11*
D12*
X-11737800Y10704700D02*
X-11697800Y10664700D01*
X-11697800Y10704700D02*
X-11737800Y10664700D01*
X-11355800Y6250700D02*
X-11315800Y6210700D01*
X-11315800Y6250700D02*
X-11355800Y6210700D01*
X-11344800Y7870700D02*
X-11304800Y7830700D01*
X-11304800Y7870700D02*
X-11344800Y7830700D01*
X-11223800Y4866700D02*
X-11183800Y4826700D01*
X-11183800Y4866700D02*
X-11223800Y4826700D01*
X-11154700Y7444800D02*
X-11114700Y7404800D01*
X-11114700Y7444800D02*
X-11154700Y7404800D01*
X-11145800Y10132700D02*
X-11105800Y10092700D01*
X-11105800Y10132700D02*
X-11145800Y10092700D01*
X-11138800Y10790700D02*
X-11098800Y10750700D01*
X-11098800Y10790700D02*
X-11138800Y10750700D01*
X-11130000Y7162800D02*
X-11090000Y7122800D01*
X-11090000Y7162800D02*
X-11130000Y7122800D01*
X-11105584Y3132250D02*
X-11065584Y3092250D01*
X-11065584Y3132250D02*
X-11105584Y3092250D01*
X-11100800Y9966700D02*
X-11060800Y9926700D01*
X-11060800Y9966700D02*
X-11100800Y9926700D01*
X-11081909Y5709731D02*
X-11041909Y5669731D01*
X-11041909Y5709731D02*
X-11081909Y5669731D01*
X-11064800Y9102700D02*
X-11024800Y9062700D01*
X-11024800Y9102700D02*
X-11064800Y9062700D01*
X-11026800Y2304700D02*
X-10986800Y2264700D01*
X-10986800Y2304700D02*
X-11026800Y2264700D01*
X-11007500Y7972000D02*
X-10967500Y7932000D01*
X-10967500Y7972000D02*
X-11007500Y7932000D01*
X-10982950Y4851250D02*
X-10942950Y4811250D01*
X-10942950Y4851250D02*
X-10982950Y4811250D01*
X-10926800Y3670250D02*
X-10886800Y3630250D01*
X-10886800Y3670250D02*
X-10926800Y3630250D01*
X-10926800Y2883700D02*
X-10886800Y2843700D01*
X-10886800Y2883700D02*
X-10926800Y2843700D01*
X-10833800Y9715700D02*
X-10793800Y9675700D01*
X-10793800Y9715700D02*
X-10833800Y9675700D01*
X-10824800Y8596700D02*
X-10784800Y8556700D01*
X-10784800Y8596700D02*
X-10824800Y8556700D01*
X-10820800Y6741700D02*
X-10780800Y6701700D01*
X-10780800Y6741700D02*
X-10820800Y6701700D01*
X-10818800Y6483700D02*
X-10778800Y6443700D01*
X-10778800Y6483700D02*
X-10818800Y6443700D01*
X-10811800Y6607700D02*
X-10771800Y6567700D01*
X-10771800Y6607700D02*
X-10811800Y6567700D01*
X-10805800Y8401700D02*
X-10765800Y8361700D01*
X-10765800Y8401700D02*
X-10805800Y8361700D01*
X-10768484Y3152250D02*
X-10728484Y3112250D01*
X-10728484Y3152250D02*
X-10768484Y3112250D01*
X-10767751Y3558700D02*
X-10727751Y3518700D01*
X-10727751Y3558700D02*
X-10767751Y3518700D01*
X-10763350Y7130277D02*
X-10723350Y7090277D01*
X-10723350Y7130277D02*
X-10763350Y7090277D01*
X-10723800Y7623700D02*
X-10683800Y7583700D01*
X-10683800Y7623700D02*
X-10723800Y7583700D01*
X-10722800Y3405700D02*
X-10682800Y3365700D01*
X-10682800Y3405700D02*
X-10722800Y3365700D01*
X-10719800Y2439700D02*
X-10679800Y2399700D01*
X-10679800Y2439700D02*
X-10719800Y2399700D01*
X-10717815Y9323715D02*
X-10677815Y9283715D01*
X-10677815Y9323715D02*
X-10717815Y9283715D01*
X-10639800Y5386700D02*
X-10599800Y5346700D01*
X-10599800Y5386700D02*
X-10639800Y5346700D01*
X-10628800Y6286700D02*
X-10588800Y6246700D01*
X-10588800Y6286700D02*
X-10628800Y6246700D01*
X-10626691Y5968051D02*
X-10586691Y5928051D01*
X-10586691Y5968051D02*
X-10626691Y5928051D01*
X-10576500Y7761600D02*
X-10536500Y7721600D01*
X-10536500Y7761600D02*
X-10576500Y7721600D01*
X-10569100Y8493000D02*
X-10529100Y8453000D01*
X-10529100Y8493000D02*
X-10569100Y8453000D01*
X-10541800Y8665700D02*
X-10501800Y8625700D01*
X-10501800Y8665700D02*
X-10541800Y8625700D01*
X-10528131Y7340520D02*
X-10488131Y7300520D01*
X-10488131Y7340520D02*
X-10528131Y7300520D01*
X-10496409Y2091826D02*
X-10456409Y2051826D01*
X-10456409Y2091826D02*
X-10496409Y2051826D01*
X-10494800Y6877700D02*
X-10454800Y6837700D01*
X-10454800Y6877700D02*
X-10494800Y6837700D01*
X-10494201Y2268700D02*
X-10454201Y2228700D01*
X-10454201Y2268700D02*
X-10494201Y2228700D01*
X-10489399Y5231099D02*
X-10449399Y5191099D01*
X-10449399Y5231099D02*
X-10489399Y5191099D01*
X-10482800Y6143700D02*
X-10442800Y6103700D01*
X-10442800Y6143700D02*
X-10482800Y6103700D01*
X-10481800Y1598700D02*
X-10441800Y1558700D01*
X-10441800Y1598700D02*
X-10481800Y1558700D01*
X-10449250Y2003700D02*
X-10409250Y1963700D01*
X-10409250Y2003700D02*
X-10449250Y1963700D01*
X-10439800Y6725700D02*
X-10399800Y6685700D01*
X-10399800Y6725700D02*
X-10439800Y6685700D01*
X-10429800Y4782700D02*
X-10389800Y4742700D01*
X-10389800Y4782700D02*
X-10429800Y4742700D01*
X-10422800Y7371700D02*
X-10382800Y7331700D01*
X-10382800Y7371700D02*
X-10422800Y7331700D01*
X-10415800Y8119700D02*
X-10375800Y8079700D01*
X-10375800Y8119700D02*
X-10415800Y8079700D01*
X-10407800Y3804700D02*
X-10367800Y3764700D01*
X-10367800Y3804700D02*
X-10407800Y3764700D01*
X-10399497Y5682700D02*
X-10359497Y5642700D01*
X-10359497Y5682700D02*
X-10399497Y5642700D01*
X-10394800Y8296700D02*
X-10354800Y8256700D01*
X-10354800Y8296700D02*
X-10394800Y8256700D01*
X-10386939Y5121739D02*
X-10346939Y5081739D01*
X-10346939Y5121739D02*
X-10386939Y5081739D01*
X-10377800Y8611700D02*
X-10337800Y8571700D01*
X-10337800Y8611700D02*
X-10377800Y8571700D01*
X-10365399Y4592250D02*
X-10325399Y4552250D01*
X-10325399Y4592250D02*
X-10365399Y4552250D01*
X-10315800Y1423700D02*
X-10275800Y1383700D01*
X-10275800Y1423700D02*
X-10315800Y1383700D01*
X-10313800Y7365700D02*
X-10273800Y7325700D01*
X-10273800Y7365700D02*
X-10313800Y7325700D01*
X-10292949Y6136623D02*
X-10252949Y6096623D01*
X-10252949Y6136623D02*
X-10292949Y6096623D01*
X-10287800Y2788700D02*
X-10247800Y2748700D01*
X-10247800Y2788700D02*
X-10287800Y2748700D01*
X-10283800Y1573700D02*
X-10243800Y1533700D01*
X-10243800Y1573700D02*
X-10283800Y1533700D01*
X-10267800Y9273700D02*
X-10227800Y9233700D01*
X-10227800Y9273700D02*
X-10267800Y9233700D01*
X-10261800Y8837700D02*
X-10221800Y8797700D01*
X-10221800Y8837700D02*
X-10261800Y8797700D01*
X-10248800Y7006700D02*
X-10208800Y6966700D01*
X-10208800Y7006700D02*
X-10248800Y6966700D01*
X-10211390Y4133630D02*
X-10171390Y4093630D01*
X-10171390Y4133630D02*
X-10211390Y4093630D01*
X-10208800Y9459700D02*
X-10168800Y9419700D01*
X-10168800Y9459700D02*
X-10208800Y9419700D01*
X-10208030Y6013470D02*
X-10168030Y5973470D01*
X-10168030Y6013470D02*
X-10208030Y5973470D01*
X-10195800Y4770700D02*
X-10155800Y4730700D01*
X-10155800Y4770700D02*
X-10195800Y4730700D01*
X-10195704Y6754549D02*
X-10155704Y6714549D01*
X-10155704Y6754549D02*
X-10195704Y6714549D01*
X-10180800Y7357700D02*
X-10140800Y7317700D01*
X-10140800Y7357700D02*
X-10180800Y7317700D01*
X-10123800Y3912700D02*
X-10083800Y3872700D01*
X-10083800Y3912700D02*
X-10123800Y3872700D01*
X-10123400Y6571400D02*
X-10083400Y6531400D01*
X-10083400Y6571400D02*
X-10123400Y6531400D01*
X-10116070Y4939430D02*
X-10076070Y4899430D01*
X-10076070Y4939430D02*
X-10116070Y4899430D01*
X-10103800Y10154700D02*
X-10063800Y10114700D01*
X-10063800Y10154700D02*
X-10103800Y10114700D01*
X-10084800Y5955700D02*
X-10044800Y5915700D01*
X-10044800Y5955700D02*
X-10084800Y5915700D01*
X-10067800Y7321700D02*
X-10027800Y7281700D01*
X-10027800Y7321700D02*
X-10067800Y7281700D01*
X-10044620Y5009322D02*
X-10004620Y4969322D01*
X-10004620Y5009322D02*
X-10044620Y4969322D01*
X-10038066Y4313952D02*
X-9998066Y4273952D01*
X-9998066Y4313952D02*
X-10038066Y4273952D01*
X-10034800Y4152700D02*
X-9994800Y4112700D01*
X-9994800Y4152700D02*
X-10034800Y4112700D01*
X-9975800Y6733150D02*
X-9935800Y6693150D01*
X-9935800Y6733150D02*
X-9975800Y6693150D01*
X-9971800Y5280700D02*
X-9931800Y5240700D01*
X-9931800Y5280700D02*
X-9971800Y5240700D01*
X-9964760Y6832489D02*
X-9924760Y6792489D01*
X-9924760Y6832489D02*
X-9964760Y6792489D01*
X-9960800Y6105700D02*
X-9920800Y6065700D01*
X-9920800Y6105700D02*
X-9960800Y6065700D01*
X-9944800Y9352700D02*
X-9904800Y9312700D01*
X-9904800Y9352700D02*
X-9944800Y9312700D01*
X-9931800Y8871700D02*
X-9891800Y8831700D01*
X-9891800Y8871700D02*
X-9931800Y8831700D01*
X-9928800Y9859700D02*
X-9888800Y9819700D01*
X-9888800Y9859700D02*
X-9928800Y9819700D01*
X-9927209Y4569707D02*
X-9887209Y4529707D01*
X-9887209Y4569707D02*
X-9927209Y4529707D01*
X-9922800Y8463700D02*
X-9882800Y8423700D01*
X-9882800Y8463700D02*
X-9922800Y8423700D01*
X-9877800Y7309700D02*
X-9837800Y7269700D01*
X-9837800Y7309700D02*
X-9877800Y7269700D01*
X-9871900Y4925800D02*
X-9831900Y4885800D01*
X-9831900Y4925800D02*
X-9871900Y4885800D01*
X-9862800Y3442700D02*
X-9822800Y3402700D01*
X-9822800Y3442700D02*
X-9862800Y3402700D01*
X-9855800Y5418700D02*
X-9815800Y5378700D01*
X-9815800Y5418700D02*
X-9855800Y5378700D01*
X-9845800Y8370700D02*
X-9805800Y8330700D01*
X-9805800Y8370700D02*
X-9845800Y8330700D01*
X-9829800Y7532700D02*
X-9789800Y7492700D01*
X-9789800Y7532700D02*
X-9829800Y7492700D01*
X-9827800Y10231700D02*
X-9787800Y10191700D01*
X-9787800Y10231700D02*
X-9827800Y10191700D01*
X-9794800Y3914700D02*
X-9754800Y3874700D01*
X-9754800Y3914700D02*
X-9794800Y3874700D01*
X-9757800Y5340700D02*
X-9717800Y5300700D01*
X-9717800Y5340700D02*
X-9757800Y5300700D01*
X-9755800Y5929700D02*
X-9715800Y5889700D01*
X-9715800Y5929700D02*
X-9755800Y5889700D01*
X-9753522Y3769025D02*
X-9713522Y3729025D01*
X-9713522Y3769025D02*
X-9753522Y3729025D01*
X-9723800Y7867700D02*
X-9683800Y7827700D01*
X-9683800Y7867700D02*
X-9723800Y7827700D01*
X-9699800Y3099700D02*
X-9659800Y3059700D01*
X-9659800Y3099700D02*
X-9699800Y3059700D01*
X-9679751Y7001164D02*
X-9639751Y6961164D01*
X-9639751Y7001164D02*
X-9679751Y6961164D01*
X-9666800Y6683700D02*
X-9626800Y6643700D01*
X-9626800Y6683700D02*
X-9666800Y6643700D01*
X-9663900Y5000200D02*
X-9623900Y4960200D01*
X-9623900Y5000200D02*
X-9663900Y4960200D01*
X-9607100Y8367000D02*
X-9567100Y8327000D01*
X-9567100Y8367000D02*
X-9607100Y8327000D01*
X-9603810Y6316150D02*
X-9563810Y6276150D01*
X-9563810Y6316150D02*
X-9603810Y6276150D01*
X-9602800Y8021700D02*
X-9562800Y7981700D01*
X-9562800Y8021700D02*
X-9602800Y7981700D01*
X-9581800Y5810700D02*
X-9541800Y5770700D01*
X-9541800Y5810700D02*
X-9581800Y5770700D01*
X-9564800Y10482700D02*
X-9524800Y10442700D01*
X-9524800Y10482700D02*
X-9564800Y10442700D01*
X-9529540Y6999299D02*
X-9489540Y6959299D01*
X-9489540Y6999299D02*
X-9529540Y6959299D01*
X-9485800Y9614700D02*
X-9445800Y9574700D01*
X-9445800Y9614700D02*
X-9485800Y9574700D01*
X-9476800Y7794700D02*
X-9436800Y7754700D01*
X-9436800Y7794700D02*
X-9476800Y7754700D01*
X-9412800Y3236700D02*
X-9372800Y3196700D01*
X-9372800Y3236700D02*
X-9412800Y3196700D01*
X-9336800Y4984700D02*
X-9296800Y4944700D01*
X-9296800Y4984700D02*
X-9336800Y4944700D01*
X-9323277Y5156637D02*
X-9283277Y5116637D01*
X-9283277Y5156637D02*
X-9323277Y5116637D01*
X-9315800Y8352700D02*
X-9275800Y8312700D01*
X-9275800Y8352700D02*
X-9315800Y8312700D01*
X-9250800Y9711700D02*
X-9210800Y9671700D01*
X-9210800Y9711700D02*
X-9250800Y9671700D01*
X-9235800Y6853700D02*
X-9195800Y6813700D01*
X-9195800Y6853700D02*
X-9235800Y6813700D01*
X-9232850Y5301700D02*
X-9192850Y5261700D01*
X-9192850Y5301700D02*
X-9232850Y5261700D01*
X-9228800Y5063700D02*
X-9188800Y5023700D01*
X-9188800Y5063700D02*
X-9228800Y5023700D01*
X-9207800Y7266700D02*
X-9167800Y7226700D01*
X-9167800Y7266700D02*
X-9207800Y7226700D01*
X-9200530Y7376430D02*
X-9160530Y7336430D01*
X-9160530Y7376430D02*
X-9200530Y7336430D01*
X-9162800Y10890700D02*
X-9122800Y10850700D01*
X-9122800Y10890700D02*
X-9162800Y10850700D01*
X-9142800Y11054700D02*
X-9102800Y11014700D01*
X-9102800Y11054700D02*
X-9142800Y11014700D01*
X-9137800Y8250700D02*
X-9097800Y8210700D01*
X-9097800Y8250700D02*
X-9137800Y8210700D01*
X-9102800Y3554700D02*
X-9062800Y3514700D01*
X-9062800Y3554700D02*
X-9102800Y3514700D01*
X-9087800Y5311700D02*
X-9047800Y5271700D01*
X-9047800Y5311700D02*
X-9087800Y5271700D01*
X-9044800Y5602700D02*
X-9004800Y5562700D01*
X-9004800Y5602700D02*
X-9044800Y5562700D01*
X-9040800Y11452700D02*
X-9000800Y11412700D01*
X-9000800Y11452700D02*
X-9040800Y11412700D01*
X-9015800Y2132700D02*
X-8975800Y2092700D01*
X-8975800Y2132700D02*
X-9015800Y2092700D01*
X-9002800Y6757700D02*
X-8962800Y6717700D01*
X-8962800Y6757700D02*
X-9002800Y6717700D01*
X-8972800Y7560700D02*
X-8932800Y7520700D01*
X-8932800Y7560700D02*
X-8972800Y7520700D01*
X-8972800Y4451700D02*
X-8932800Y4411700D01*
X-8932800Y4451700D02*
X-8972800Y4411700D01*
X-8943800Y5136700D02*
X-8903800Y5096700D01*
X-8903800Y5136700D02*
X-8943800Y5096700D01*
X-8883800Y7086700D02*
X-8843800Y7046700D01*
X-8843800Y7086700D02*
X-8883800Y7046700D01*
X-8875800Y8720700D02*
X-8835800Y8680700D01*
X-8835800Y8720700D02*
X-8875800Y8680700D01*
X-8843800Y10923700D02*
X-8803800Y10883700D01*
X-8803800Y10923700D02*
X-8843800Y10883700D01*
X-8842800Y1252700D02*
X-8802800Y1212700D01*
X-8802800Y1252700D02*
X-8842800Y1212700D01*
X-8808800Y7568700D02*
X-8768800Y7528700D01*
X-8768800Y7568700D02*
X-8808800Y7528700D01*
X-8802800Y5638700D02*
X-8762800Y5598700D01*
X-8762800Y5638700D02*
X-8802800Y5598700D01*
X-8718800Y1695700D02*
X-8678800Y1655700D01*
X-8678800Y1695700D02*
X-8718800Y1655700D01*
X-8601800Y5706700D02*
X-8561800Y5666700D01*
X-8561800Y5706700D02*
X-8601800Y5666700D01*
X-8585800Y4427700D02*
X-8545800Y4387700D01*
X-8545800Y4427700D02*
X-8585800Y4387700D01*
X-8535800Y3141700D02*
X-8495800Y3101700D01*
X-8495800Y3141700D02*
X-8535800Y3101700D01*
X-8486030Y11541930D02*
X-8446030Y11501930D01*
X-8446030Y11541930D02*
X-8486030Y11501930D01*
X-8457800Y2624700D02*
X-8417800Y2584700D01*
X-8417800Y2624700D02*
X-8457800Y2584700D01*
X-8425235Y11374733D02*
X-8385235Y11334733D01*
X-8385235Y11374733D02*
X-8425235Y11334733D01*
X-8421800Y11684700D02*
X-8381800Y11644700D01*
X-8381800Y11684700D02*
X-8421800Y11644700D01*
X-8382800Y8122700D02*
X-8342800Y8082700D01*
X-8342800Y8122700D02*
X-8382800Y8082700D01*
X-8382800Y3879700D02*
X-8342800Y3839700D01*
X-8342800Y3879700D02*
X-8382800Y3839700D01*
X-8358800Y6986700D02*
X-8318800Y6946700D01*
X-8318800Y6986700D02*
X-8358800Y6946700D01*
X-8352800Y7475700D02*
X-8312800Y7435700D01*
X-8312800Y7475700D02*
X-8352800Y7435700D01*
X-8327800Y11501700D02*
X-8287800Y11461700D01*
X-8287800Y11501700D02*
X-8327800Y11461700D01*
X-8292800Y2038700D02*
X-8252800Y1998700D01*
X-8252800Y2038700D02*
X-8292800Y1998700D01*
X-8279800Y5705700D02*
X-8239800Y5665700D01*
X-8239800Y5705700D02*
X-8279800Y5665700D01*
X-8201800Y6837700D02*
X-8161800Y6797700D01*
X-8161800Y6837700D02*
X-8201800Y6797700D01*
X-8130800Y1568700D02*
X-8090800Y1528700D01*
X-8090800Y1568700D02*
X-8130800Y1528700D01*
X-8080800Y4875700D02*
X-8040800Y4835700D01*
X-8040800Y4875700D02*
X-8080800Y4835700D01*
X-8065800Y4378700D02*
X-8025800Y4338700D01*
X-8025800Y4378700D02*
X-8065800Y4338700D01*
X-8047800Y8696700D02*
X-8007800Y8656700D01*
X-8007800Y8696700D02*
X-8047800Y8656700D01*
X-8045800Y8063700D02*
X-8005800Y8023700D01*
X-8005800Y8063700D02*
X-8045800Y8023700D01*
X-8015100Y9949900D02*
X-7975100Y9909900D01*
X-7975100Y9949900D02*
X-8015100Y9909900D01*
X-7990800Y4711700D02*
X-7950800Y4671700D01*
X-7950800Y4711700D02*
X-7990800Y4671700D01*
X-7917800Y6492700D02*
X-7877800Y6452700D01*
X-7877800Y6492700D02*
X-7917800Y6452700D01*
X-7909800Y11518700D02*
X-7869800Y11478700D01*
X-7869800Y11518700D02*
X-7909800Y11478700D01*
X-7870800Y8391700D02*
X-7830800Y8351700D01*
X-7830800Y8391700D02*
X-7870800Y8351700D01*
X-7847800Y7144700D02*
X-7807800Y7104700D01*
X-7807800Y7144700D02*
X-7847800Y7104700D01*
X-7813800Y5252700D02*
X-7773800Y5212700D01*
X-7773800Y5252700D02*
X-7813800Y5212700D01*
X-7778800Y8189700D02*
X-7738800Y8149700D01*
X-7738800Y8189700D02*
X-7778800Y8149700D01*
X-7775800Y2969700D02*
X-7735800Y2929700D01*
X-7735800Y2969700D02*
X-7775800Y2929700D01*
X-7744800Y6961700D02*
X-7704800Y6921700D01*
X-7704800Y6961700D02*
X-7744800Y6921700D01*
X-7743800Y3249700D02*
X-7703800Y3209700D01*
X-7703800Y3249700D02*
X-7743800Y3209700D01*
X-7719800Y11355700D02*
X-7679800Y11315700D01*
X-7679800Y11355700D02*
X-7719800Y11315700D01*
X-7714800Y3494700D02*
X-7674800Y3454700D01*
X-7674800Y3494700D02*
X-7714800Y3454700D01*
X-7706800Y8986700D02*
X-7666800Y8946700D01*
X-7666800Y8986700D02*
X-7706800Y8946700D01*
X-7680800Y7920700D02*
X-7640800Y7880700D01*
X-7640800Y7920700D02*
X-7680800Y7880700D01*
X-7623800Y5904700D02*
X-7583800Y5864700D01*
X-7583800Y5904700D02*
X-7623800Y5864700D01*
X-7589800Y3439700D02*
X-7549800Y3399700D01*
X-7549800Y3439700D02*
X-7589800Y3399700D01*
X-7466138Y7962150D02*
X-7426138Y7922150D01*
X-7426138Y7962150D02*
X-7466138Y7922150D01*
X-7434400Y5761500D02*
X-7394400Y5721500D01*
X-7394400Y5761500D02*
X-7434400Y5721500D01*
X-7384100Y5959800D02*
X-7344100Y5919800D01*
X-7344100Y5959800D02*
X-7384100Y5919800D01*
X-7297800Y8356700D02*
X-7257800Y8316700D01*
X-7257800Y8356700D02*
X-7297800Y8316700D01*
X-7287800Y4272700D02*
X-7247800Y4232700D01*
X-7247800Y4272700D02*
X-7287800Y4232700D01*
X-7285800Y6805700D02*
X-7245800Y6765700D01*
X-7245800Y6805700D02*
X-7285800Y6765700D01*
X-7259800Y3431700D02*
X-7219800Y3391700D01*
X-7219800Y3431700D02*
X-7259800Y3391700D01*
X-7258800Y11503700D02*
X-7218800Y11463700D01*
X-7218800Y11503700D02*
X-7258800Y11463700D01*
X-7229800Y3021700D02*
X-7189800Y2981700D01*
X-7189800Y3021700D02*
X-7229800Y2981700D01*
X-7199800Y4728700D02*
X-7159800Y4688700D01*
X-7159800Y4728700D02*
X-7199800Y4688700D01*
X-7125800Y7010700D02*
X-7085800Y6970700D01*
X-7085800Y7010700D02*
X-7125800Y6970700D01*
X-7094800Y3958700D02*
X-7054800Y3918700D01*
X-7054800Y3958700D02*
X-7094800Y3918700D01*
X-7089800Y4259700D02*
X-7049800Y4219700D01*
X-7049800Y4259700D02*
X-7089800Y4219700D01*
X-7059368Y7862823D02*
X-7019368Y7822823D01*
X-7019368Y7862823D02*
X-7059368Y7822823D01*
X-7039800Y6811700D02*
X-6999800Y6771700D01*
X-6999800Y6811700D02*
X-7039800Y6771700D01*
X-7030800Y11629700D02*
X-6990800Y11589700D01*
X-6990800Y11629700D02*
X-7030800Y11589700D01*
X-7004800Y8853700D02*
X-6964800Y8813700D01*
X-6964800Y8853700D02*
X-7004800Y8813700D01*
X-6952800Y2769700D02*
X-6912800Y2729700D01*
X-6912800Y2769700D02*
X-6952800Y2729700D01*
X-6950800Y7953700D02*
X-6910800Y7913700D01*
X-6910800Y7953700D02*
X-6950800Y7913700D01*
X-6943800Y8364700D02*
X-6903800Y8324700D01*
X-6903800Y8364700D02*
X-6943800Y8324700D01*
X-6940800Y3427700D02*
X-6900800Y3387700D01*
X-6900800Y3427700D02*
X-6940800Y3387700D01*
X-6587800Y3103700D02*
X-6547800Y3063700D01*
X-6547800Y3103700D02*
X-6587800Y3063700D01*
D13*
X-8221400Y10753700D02*
G75*
G03*
X-8221400Y10753700I-25400J0D01*
G01*
X-7967400Y11007700D02*
G75*
G03*
X-7967400Y11007700I-25400J0D01*
G01*
X-7713400Y10753700D02*
G75*
G03*
X-7713400Y10753700I-25400J0D01*
G01*
D14*
X-11868020Y2755410D02*
X-11868020Y2675410D01*
X-11908020Y2715410D02*
X-11828020Y2715410D01*
X-11868020Y1561610D02*
X-11868020Y1481610D01*
X-11908020Y1521610D02*
X-11828020Y1521610D01*
X-11614020Y3009410D02*
X-11614020Y2929410D01*
X-11654020Y2969410D02*
X-11574020Y2969410D01*
X-11614020Y2501410D02*
X-11614020Y2421410D01*
X-11654020Y2461410D02*
X-11574020Y2461410D01*
X-11614020Y1815610D02*
X-11614020Y1735610D01*
X-11654020Y1775610D02*
X-11574020Y1775610D01*
X-11614020Y1307610D02*
X-11614020Y1227610D01*
X-11654020Y1267610D02*
X-11574020Y1267610D01*
X-11360020Y3009410D02*
X-11360020Y2929410D01*
X-11400020Y2969410D02*
X-11320020Y2969410D01*
X-11360020Y2501410D02*
X-11360020Y2421410D01*
X-11400020Y2461410D02*
X-11320020Y2461410D01*
X-11360020Y1815610D02*
X-11360020Y1735610D01*
X-11400020Y1775610D02*
X-11320020Y1775610D01*
X-11360020Y1307610D02*
X-11360020Y1227610D01*
X-11400020Y1267610D02*
X-11320020Y1267610D01*
X-11106020Y3009410D02*
X-11106020Y2929410D01*
X-11146020Y2969410D02*
X-11066020Y2969410D01*
X-11106020Y2501410D02*
X-11106020Y2421410D01*
X-11146020Y2461410D02*
X-11066020Y2461410D01*
X-11106020Y1815610D02*
X-11106020Y1735610D01*
X-11146020Y1775610D02*
X-11066020Y1775610D01*
X-11106020Y1307610D02*
X-11106020Y1227610D01*
X-11146020Y1267610D02*
X-11066020Y1267610D01*
X-10852020Y2755410D02*
X-10852020Y2675410D01*
X-10892020Y2715410D02*
X-10812020Y2715410D01*
X-10852020Y1561610D02*
X-10852020Y1481610D01*
X-10892020Y1521610D02*
X-10812020Y1521610D01*
D15*
X-11582605Y10385075D02*
X-11582605Y10447937D01*
X-11645467Y10447937D01*
X-11645467Y10385075D01*
X-11582605Y10385075D01*
X-11582605Y8619775D02*
X-11582605Y8682637D01*
X-11645467Y8682637D01*
X-11645467Y8619775D01*
X-11582605Y8619775D01*
X-11582605Y6854474D02*
X-11582605Y6917337D01*
X-11645467Y6917337D01*
X-11645467Y6854474D01*
X-11582605Y6854474D01*
X-11582605Y5089175D02*
X-11582605Y5152037D01*
X-11645467Y5152037D01*
X-11645467Y5089175D01*
X-11582605Y5089175D01*
X-11582605Y3323874D02*
X-11582605Y3386737D01*
X-11645467Y3386737D01*
X-11645467Y3323874D01*
X-11582605Y3323874D01*
X-11328605Y10385075D02*
X-11328605Y10447937D01*
X-11391467Y10447937D01*
X-11391467Y10385075D01*
X-11328605Y10385075D01*
X-11328605Y8619775D02*
X-11328605Y8682637D01*
X-11391467Y8682637D01*
X-11391467Y8619775D01*
X-11328605Y8619775D01*
X-11328605Y6854474D02*
X-11328605Y6917337D01*
X-11391467Y6917337D01*
X-11391467Y6854474D01*
X-11328605Y6854474D01*
X-11328605Y5089175D02*
X-11328605Y5152037D01*
X-11391467Y5152037D01*
X-11391467Y5089175D01*
X-11328605Y5089175D01*
X-11328605Y3323874D02*
X-11328605Y3386737D01*
X-11391467Y3386737D01*
X-11391467Y3323874D01*
X-11328605Y3323874D01*
X-11074605Y10385075D02*
X-11074605Y10447937D01*
X-11137468Y10447937D01*
X-11137468Y10385075D01*
X-11074605Y10385075D01*
X-11074605Y8619775D02*
X-11074605Y8682637D01*
X-11137468Y8682637D01*
X-11137468Y8619775D01*
X-11074605Y8619775D01*
X-11074605Y6854474D02*
X-11074605Y6917337D01*
X-11137468Y6917337D01*
X-11137468Y6854474D01*
X-11074605Y6854474D01*
X-11074605Y5089175D02*
X-11074605Y5152037D01*
X-11137468Y5152037D01*
X-11137468Y5089175D01*
X-11074605Y5089175D01*
X-11074605Y3323874D02*
X-11074605Y3386737D01*
X-11137468Y3386737D01*
X-11137468Y3323874D01*
X-11074605Y3323874D01*
X-9555669Y11086299D02*
X-9555669Y11149161D01*
X-9618531Y11149161D01*
X-9618531Y11086299D01*
X-9555669Y11086299D01*
X-9555669Y9816299D02*
X-9555669Y9879161D01*
X-9618531Y9879161D01*
X-9618531Y9816299D01*
X-9555669Y9816299D01*
X-9555669Y8546299D02*
X-9555669Y8609161D01*
X-9618531Y8609161D01*
X-9618531Y8546299D01*
X-9555669Y8546299D01*
X-9555669Y7276299D02*
X-9555669Y7339161D01*
X-9618531Y7339161D01*
X-9618531Y7276299D01*
X-9555669Y7276299D01*
X-9555669Y6006299D02*
X-9555669Y6069161D01*
X-9618531Y6069161D01*
X-9618531Y6006299D01*
X-9555669Y6006299D01*
X-9555669Y4736299D02*
X-9555669Y4799161D01*
X-9618531Y4799161D01*
X-9618531Y4736299D01*
X-9555669Y4736299D01*
X-9555669Y3466299D02*
X-9555669Y3529161D01*
X-9618531Y3529161D01*
X-9618531Y3466299D01*
X-9555669Y3466299D01*
X-9555669Y2196299D02*
X-9555669Y2259161D01*
X-9618531Y2259161D01*
X-9618531Y2196299D01*
X-9555669Y2196299D01*
X-6400989Y11430469D02*
X-6400989Y11493331D01*
X-6463851Y11493331D01*
X-6463851Y11430469D01*
X-6400989Y11430469D01*
X-6400989Y10192219D02*
X-6400989Y10255081D01*
X-6463851Y10255081D01*
X-6463851Y10192219D01*
X-6400989Y10192219D01*
X-6400989Y8953969D02*
X-6400989Y9016831D01*
X-6463851Y9016831D01*
X-6463851Y8953969D01*
X-6400989Y8953969D01*
X-6400989Y7715719D02*
X-6400989Y7778581D01*
X-6463851Y7778581D01*
X-6463851Y7715719D01*
X-6400989Y7715719D01*
X-6400989Y6477469D02*
X-6400989Y6540331D01*
X-6463851Y6540331D01*
X-6463851Y6477469D01*
X-6400989Y6477469D01*
X-6400989Y5239219D02*
X-6400989Y5302081D01*
X-6463851Y5302081D01*
X-6463851Y5239219D01*
X-6400989Y5239219D01*
X-6400989Y4000969D02*
X-6400989Y4063831D01*
X-6463851Y4063831D01*
X-6463851Y4000969D01*
X-6400989Y4000969D01*
X-6400989Y2762719D02*
X-6400989Y2825581D01*
X-6463851Y2825581D01*
X-6463851Y2762719D01*
X-6400989Y2762719D01*
X-6400989Y1524469D02*
X-6400989Y1587331D01*
X-6463851Y1587331D01*
X-6463851Y1524469D01*
X-6400989Y1524469D01*
D16*
X-11799745Y4605128D02*
X-11754745Y4650128D01*
X-11799745Y4695128D01*
X-11844745Y4650128D01*
X-11799745Y4605128D01*
X-11545745Y4605128D02*
X-11500745Y4650128D01*
X-11545745Y4695128D01*
X-11590745Y4650128D01*
X-11545745Y4605128D01*
X-10465800Y11752700D02*
X-10420800Y11797700D01*
X-10465800Y11842700D01*
X-10510800Y11797700D01*
X-10465800Y11752700D01*
X-10465800Y11498700D02*
X-10420800Y11543700D01*
X-10465800Y11588700D01*
X-10510800Y11543700D01*
X-10465800Y11498700D01*
X-10465800Y11244700D02*
X-10420800Y11289700D01*
X-10465800Y11334700D01*
X-10510800Y11289700D01*
X-10465800Y11244700D01*
X-10465800Y10990700D02*
X-10420800Y11035700D01*
X-10465800Y11080700D01*
X-10510800Y11035700D01*
X-10465800Y10990700D01*
X-10465800Y10736700D02*
X-10420800Y10781700D01*
X-10465800Y10826700D01*
X-10510800Y10781700D01*
X-10465800Y10736700D01*
X-10465800Y10482700D02*
X-10420800Y10527700D01*
X-10465800Y10572700D01*
X-10510800Y10527700D01*
X-10465800Y10482700D01*
X-10465800Y10228700D02*
X-10420800Y10273700D01*
X-10465800Y10318700D01*
X-10510800Y10273700D01*
X-10465800Y10228700D01*
X-10465800Y9974700D02*
X-10420800Y10019700D01*
X-10465800Y10064700D01*
X-10510800Y10019700D01*
X-10465800Y9974700D01*
X-10211800Y11752700D02*
X-10166800Y11797700D01*
X-10211800Y11842700D01*
X-10256800Y11797700D01*
X-10211800Y11752700D01*
X-10211800Y11498700D02*
X-10166800Y11543700D01*
X-10211800Y11588700D01*
X-10256800Y11543700D01*
X-10211800Y11498700D01*
X-10211800Y11244700D02*
X-10166800Y11289700D01*
X-10211800Y11334700D01*
X-10256800Y11289700D01*
X-10211800Y11244700D01*
X-10211800Y10990700D02*
X-10166800Y11035700D01*
X-10211800Y11080700D01*
X-10256800Y11035700D01*
X-10211800Y10990700D01*
X-10211800Y10736700D02*
X-10166800Y10781700D01*
X-10211800Y10826700D01*
X-10256800Y10781700D01*
X-10211800Y10736700D01*
X-10211800Y10482700D02*
X-10166800Y10527700D01*
X-10211800Y10572700D01*
X-10256800Y10527700D01*
X-10211800Y10482700D01*
X-10211800Y10228700D02*
X-10166800Y10273700D01*
X-10211800Y10318700D01*
X-10256800Y10273700D01*
X-10211800Y10228700D01*
X-10211800Y9974700D02*
X-10166800Y10019700D01*
X-10211800Y10064700D01*
X-10256800Y10019700D01*
X-10211800Y9974700D01*
X-9637800Y11733700D02*
X-9592800Y11778700D01*
X-9637800Y11823700D01*
X-9682800Y11778700D01*
X-9637800Y11733700D01*
X-9383800Y11733700D02*
X-9338800Y11778700D01*
X-9383800Y11823700D01*
X-9428800Y11778700D01*
X-9383800Y11733700D01*
D17*
X-10125600Y3619500D02*
X-10024000Y3517900D01*
X-10024000Y3619500D02*
X-10125600Y3517900D01*
X-10024000Y3568700D02*
G75*
G03*
X-10024000Y3568700I-50800J0D01*
G01*
X-10125600Y3365500D02*
X-10024000Y3263900D01*
X-10024000Y3365500D02*
X-10125600Y3263900D01*
X-10024000Y3314700D02*
G75*
G03*
X-10024000Y3314700I-50800J0D01*
G01*
X-10125600Y3111500D02*
X-10024000Y3009900D01*
X-10024000Y3111500D02*
X-10125600Y3009900D01*
X-10024000Y3060700D02*
G75*
G03*
X-10024000Y3060700I-50800J0D01*
G01*
X-10125600Y2857500D02*
X-10024000Y2755900D01*
X-10024000Y2857500D02*
X-10125600Y2755900D01*
X-10024000Y2806700D02*
G75*
G03*
X-10024000Y2806700I-50800J0D01*
G01*
X-10125600Y2603500D02*
X-10024000Y2501900D01*
X-10024000Y2603500D02*
X-10125600Y2501900D01*
X-10024000Y2552700D02*
G75*
G03*
X-10024000Y2552700I-50800J0D01*
G01*
X-10125600Y2349500D02*
X-10024000Y2247900D01*
X-10024000Y2349500D02*
X-10125600Y2247900D01*
X-10024000Y2298700D02*
G75*
G03*
X-10024000Y2298700I-50800J0D01*
G01*
D18*
X-9402950Y11174880D02*
X-9288650Y11060580D01*
X-9288650Y11174880D02*
X-9402950Y11060580D01*
X-9345800Y11174880D02*
X-9345800Y11060580D01*
X-9402950Y11117730D02*
X-9288650Y11117730D01*
X-9402950Y9904880D02*
X-9288650Y9790580D01*
X-9288650Y9904880D02*
X-9402950Y9790580D01*
X-9345800Y9904880D02*
X-9345800Y9790580D01*
X-9402950Y9847730D02*
X-9288650Y9847730D01*
X-9402950Y8634880D02*
X-9288650Y8520580D01*
X-9288650Y8634880D02*
X-9402950Y8520580D01*
X-9345800Y8634880D02*
X-9345800Y8520580D01*
X-9402950Y8577730D02*
X-9288650Y8577730D01*
X-9402950Y7364880D02*
X-9288650Y7250580D01*
X-9288650Y7364880D02*
X-9402950Y7250580D01*
X-9345800Y7364880D02*
X-9345800Y7250580D01*
X-9402950Y7307730D02*
X-9288650Y7307730D01*
X-9402950Y6094880D02*
X-9288650Y5980580D01*
X-9288650Y6094880D02*
X-9402950Y5980580D01*
X-9345800Y6094880D02*
X-9345800Y5980580D01*
X-9402950Y6037730D02*
X-9288650Y6037730D01*
X-9402950Y4824880D02*
X-9288650Y4710580D01*
X-9288650Y4824880D02*
X-9402950Y4710580D01*
X-9345800Y4824880D02*
X-9345800Y4710580D01*
X-9402950Y4767730D02*
X-9288650Y4767730D01*
X-9402950Y3554880D02*
X-9288650Y3440580D01*
X-9288650Y3554880D02*
X-9402950Y3440580D01*
X-9345800Y3554880D02*
X-9345800Y3440580D01*
X-9402950Y3497730D02*
X-9288650Y3497730D01*
X-9402950Y2284880D02*
X-9288650Y2170580D01*
X-9288650Y2284880D02*
X-9402950Y2170580D01*
X-9345800Y2284880D02*
X-9345800Y2170580D01*
X-9402950Y2227730D02*
X-9288650Y2227730D01*
X-8546970Y11174880D02*
X-8432670Y11060580D01*
X-8432670Y11174880D02*
X-8546970Y11060580D01*
X-8489820Y11174880D02*
X-8489820Y11060580D01*
X-8546970Y11117730D02*
X-8432670Y11117730D01*
X-8546970Y9904880D02*
X-8432670Y9790580D01*
X-8432670Y9904880D02*
X-8546970Y9790580D01*
X-8489820Y9904880D02*
X-8489820Y9790580D01*
X-8546970Y9847730D02*
X-8432670Y9847730D01*
X-8546970Y8634880D02*
X-8432670Y8520580D01*
X-8432670Y8634880D02*
X-8546970Y8520580D01*
X-8489820Y8634880D02*
X-8489820Y8520580D01*
X-8546970Y8577730D02*
X-8432670Y8577730D01*
X-8546970Y7364880D02*
X-8432670Y7250580D01*
X-8432670Y7364880D02*
X-8546970Y7250580D01*
X-8489820Y7364880D02*
X-8489820Y7250580D01*
X-8546970Y7307730D02*
X-8432670Y7307730D01*
X-8546970Y6094880D02*
X-8432670Y5980580D01*
X-8432670Y6094880D02*
X-8546970Y5980580D01*
X-8489820Y6094880D02*
X-8489820Y5980580D01*
X-8546970Y6037730D02*
X-8432670Y6037730D01*
X-8546970Y4824880D02*
X-8432670Y4710580D01*
X-8432670Y4824880D02*
X-8546970Y4710580D01*
X-8489820Y4824880D02*
X-8489820Y4710580D01*
X-8546970Y4767730D02*
X-8432670Y4767730D01*
X-8546970Y3554880D02*
X-8432670Y3440580D01*
X-8432670Y3554880D02*
X-8546970Y3440580D01*
X-8489820Y3554880D02*
X-8489820Y3440580D01*
X-8546970Y3497730D02*
X-8432670Y3497730D01*
X-8546970Y2284880D02*
X-8432670Y2170580D01*
X-8432670Y2284880D02*
X-8546970Y2170580D01*
X-8489820Y2284880D02*
X-8489820Y2170580D01*
X-8546970Y2227730D02*
X-8432670Y2227730D01*
X-7586850Y11519050D02*
X-7472550Y11404750D01*
X-7472550Y11519050D02*
X-7586850Y11404750D01*
X-7529700Y11519050D02*
X-7529700Y11404750D01*
X-7586850Y11461900D02*
X-7472550Y11461900D01*
X-7586850Y10280800D02*
X-7472550Y10166500D01*
X-7472550Y10280800D02*
X-7586850Y10166500D01*
X-7529700Y10280800D02*
X-7529700Y10166500D01*
X-7586850Y10223650D02*
X-7472550Y10223650D01*
X-7586850Y9042550D02*
X-7472550Y8928250D01*
X-7472550Y9042550D02*
X-7586850Y8928250D01*
X-7529700Y9042550D02*
X-7529700Y8928250D01*
X-7586850Y8985400D02*
X-7472550Y8985400D01*
X-7586850Y7804300D02*
X-7472550Y7690000D01*
X-7472550Y7804300D02*
X-7586850Y7690000D01*
X-7529700Y7804300D02*
X-7529700Y7690000D01*
X-7586850Y7747150D02*
X-7472550Y7747150D01*
X-7586850Y6566050D02*
X-7472550Y6451750D01*
X-7472550Y6566050D02*
X-7586850Y6451750D01*
X-7529700Y6566050D02*
X-7529700Y6451750D01*
X-7586850Y6508900D02*
X-7472550Y6508900D01*
X-7586850Y5327800D02*
X-7472550Y5213500D01*
X-7472550Y5327800D02*
X-7586850Y5213500D01*
X-7529700Y5327800D02*
X-7529700Y5213500D01*
X-7586850Y5270650D02*
X-7472550Y5270650D01*
X-7586850Y4089550D02*
X-7472550Y3975250D01*
X-7472550Y4089550D02*
X-7586850Y3975250D01*
X-7529700Y4089550D02*
X-7529700Y3975250D01*
X-7586850Y4032400D02*
X-7472550Y4032400D01*
X-7586850Y2851300D02*
X-7472550Y2737000D01*
X-7472550Y2851300D02*
X-7586850Y2737000D01*
X-7529700Y2851300D02*
X-7529700Y2737000D01*
X-7586850Y2794150D02*
X-7472550Y2794150D01*
X-7586850Y1613050D02*
X-7472550Y1498750D01*
X-7472550Y1613050D02*
X-7586850Y1498750D01*
X-7529700Y1613050D02*
X-7529700Y1498750D01*
X-7586850Y1555900D02*
X-7472550Y1555900D01*
X-6730870Y11519050D02*
X-6616570Y11404750D01*
X-6616570Y11519050D02*
X-6730870Y11404750D01*
X-6673720Y11519050D02*
X-6673720Y11404750D01*
X-6730870Y11461900D02*
X-6616570Y11461900D01*
X-6730870Y10280800D02*
X-6616570Y10166500D01*
X-6616570Y10280800D02*
X-6730870Y10166500D01*
X-6673720Y10280800D02*
X-6673720Y10166500D01*
X-6730870Y10223650D02*
X-6616570Y10223650D01*
X-6730870Y9042550D02*
X-6616570Y8928250D01*
X-6616570Y9042550D02*
X-6730870Y8928250D01*
X-6673720Y9042550D02*
X-6673720Y8928250D01*
X-6730870Y8985400D02*
X-6616570Y8985400D01*
X-6730870Y7804300D02*
X-6616570Y7690000D01*
X-6616570Y7804300D02*
X-6730870Y7690000D01*
X-6673720Y7804300D02*
X-6673720Y7690000D01*
X-6730870Y7747150D02*
X-6616570Y7747150D01*
X-6730870Y6566050D02*
X-6616570Y6451750D01*
X-6616570Y6566050D02*
X-6730870Y6451750D01*
X-6673720Y6566050D02*
X-6673720Y6451750D01*
X-6730870Y6508900D02*
X-6616570Y6508900D01*
X-6730870Y5327800D02*
X-6616570Y5213500D01*
X-6616570Y5327800D02*
X-6730870Y5213500D01*
X-6673720Y5327800D02*
X-6673720Y5213500D01*
X-6730870Y5270650D02*
X-6616570Y5270650D01*
X-6730870Y4089550D02*
X-6616570Y3975250D01*
X-6616570Y4089550D02*
X-6730870Y3975250D01*
X-6673720Y4089550D02*
X-6673720Y3975250D01*
X-6730870Y4032400D02*
X-6616570Y4032400D01*
X-6730870Y2851300D02*
X-6616570Y2737000D01*
X-6616570Y2851300D02*
X-6730870Y2737000D01*
X-6673720Y2851300D02*
X-6673720Y2737000D01*
X-6730870Y2794150D02*
X-6616570Y2794150D01*
X-6730870Y1613050D02*
X-6616570Y1498750D01*
X-6616570Y1613050D02*
X-6730870Y1498750D01*
X-6673720Y1613050D02*
X-6673720Y1498750D01*
X-6730870Y1555900D02*
X-6616570Y1555900D01*
D19*
X-11902326Y11220416D02*
X-11696586Y11014676D01*
X-11696586Y11220416D02*
X-11902326Y11014676D01*
X-11726715Y11044805D02*
X-11726715Y11190286D01*
X-11872197Y11190286D01*
X-11872197Y11044805D01*
X-11726715Y11044805D01*
X-11902326Y9455116D02*
X-11696586Y9249376D01*
X-11696586Y9455116D02*
X-11902326Y9249376D01*
X-11726715Y9279505D02*
X-11726715Y9424987D01*
X-11872197Y9424987D01*
X-11872197Y9279505D01*
X-11726715Y9279505D01*
X-11902326Y7689816D02*
X-11696586Y7484076D01*
X-11696586Y7689816D02*
X-11902326Y7484076D01*
X-11726715Y7514205D02*
X-11726715Y7659686D01*
X-11872197Y7659686D01*
X-11872197Y7514205D01*
X-11726715Y7514205D01*
X-11902326Y5924516D02*
X-11696586Y5718776D01*
X-11696586Y5924516D02*
X-11902326Y5718776D01*
X-11726715Y5748905D02*
X-11726715Y5894386D01*
X-11872197Y5894386D01*
X-11872197Y5748905D01*
X-11726715Y5748905D01*
X-11902326Y4159216D02*
X-11696586Y3953476D01*
X-11696586Y4159216D02*
X-11902326Y3953476D01*
X-11726715Y3983605D02*
X-11726715Y4129086D01*
X-11872197Y4129086D01*
X-11872197Y3983605D01*
X-11726715Y3983605D01*
X-11023486Y11220416D02*
X-10817746Y11014676D01*
X-10817746Y11220416D02*
X-11023486Y11014676D01*
X-10847876Y11044805D02*
X-10847876Y11190286D01*
X-10993357Y11190286D01*
X-10993357Y11044805D01*
X-10847876Y11044805D01*
X-11023486Y9455116D02*
X-10817746Y9249376D01*
X-10817746Y9455116D02*
X-11023486Y9249376D01*
X-10847876Y9279505D02*
X-10847876Y9424987D01*
X-10993357Y9424987D01*
X-10993357Y9279505D01*
X-10847876Y9279505D01*
X-11023486Y7689816D02*
X-10817746Y7484076D01*
X-10817746Y7689816D02*
X-11023486Y7484076D01*
X-10847876Y7514205D02*
X-10847876Y7659686D01*
X-10993357Y7659686D01*
X-10993357Y7514205D01*
X-10847876Y7514205D01*
X-11023486Y5924516D02*
X-10817746Y5718776D01*
X-10817746Y5924516D02*
X-11023486Y5718776D01*
X-10847876Y5748905D02*
X-10847876Y5894386D01*
X-10993357Y5894386D01*
X-10993357Y5748905D01*
X-10847876Y5748905D01*
X-11023486Y4159216D02*
X-10817746Y3953476D01*
X-10817746Y4159216D02*
X-11023486Y3953476D01*
X-10847876Y3983605D02*
X-10847876Y4129086D01*
X-10993357Y4129086D01*
X-10993357Y3983605D01*
X-10847876Y3983605D01*
D11*
X-11894881Y610424D02*
X-11894881Y810424D01*
X-11847262Y810424D01*
X-11818690Y800900D01*
X-11799643Y781852D01*
X-11790119Y762805D01*
X-11780595Y724710D01*
X-11780595Y696138D01*
X-11790119Y658043D01*
X-11799643Y638995D01*
X-11818690Y619948D01*
X-11847262Y610424D01*
X-11894881Y610424D01*
X-11694881Y610424D02*
X-11694881Y743757D01*
X-11694881Y705662D02*
X-11685357Y724710D01*
X-11675833Y734233D01*
X-11656786Y743757D01*
X-11637738Y743757D01*
X-11571071Y610424D02*
X-11571071Y743757D01*
X-11571071Y810424D02*
X-11580595Y800900D01*
X-11571071Y791376D01*
X-11561548Y800900D01*
X-11571071Y810424D01*
X-11571071Y791376D01*
X-11447262Y610424D02*
X-11466310Y619948D01*
X-11475833Y638995D01*
X-11475833Y810424D01*
X-11342500Y610424D02*
X-11361548Y619948D01*
X-11371071Y638995D01*
X-11371071Y810424D01*
X-11113929Y610424D02*
X-11113929Y810424D01*
X-11047262Y667567D01*
X-10980595Y810424D01*
X-10980595Y610424D01*
X-10799643Y610424D02*
X-10799643Y715186D01*
X-10809167Y734233D01*
X-10828214Y743757D01*
X-10866310Y743757D01*
X-10885357Y734233D01*
X-10799643Y619948D02*
X-10818691Y610424D01*
X-10866310Y610424D01*
X-10885357Y619948D01*
X-10894881Y638995D01*
X-10894881Y658043D01*
X-10885357Y677091D01*
X-10866310Y686614D01*
X-10818691Y686614D01*
X-10799643Y696138D01*
X-10704405Y743757D02*
X-10704405Y543757D01*
X-10704405Y734233D02*
X-10685357Y743757D01*
X-10647262Y743757D01*
X-10628214Y734233D01*
X-10618691Y724710D01*
X-10609167Y705662D01*
X-10609167Y648519D01*
X-10618691Y629472D01*
X-10628214Y619948D01*
X-10647262Y610424D01*
X-10685357Y610424D01*
X-10704405Y619948D01*
X-10523452Y629472D02*
X-10513929Y619948D01*
X-10523452Y610424D01*
X-10532976Y619948D01*
X-10523452Y629472D01*
X-10523452Y610424D01*
X-10523452Y734233D02*
X-10513929Y724710D01*
X-10523452Y715186D01*
X-10532976Y724710D01*
X-10523452Y734233D01*
X-10523452Y715186D01*
D12*
X-12192500Y300900D02*
X-12152500Y260900D01*
X-12152500Y300900D02*
X-12192500Y260900D01*
D11*
X-11856786Y390424D02*
X-11837738Y390424D01*
X-11818690Y380900D01*
X-11809167Y371376D01*
X-11799643Y352329D01*
X-11790119Y314233D01*
X-11790119Y266614D01*
X-11799643Y228519D01*
X-11809167Y209471D01*
X-11818690Y199948D01*
X-11837738Y190424D01*
X-11856786Y190424D01*
X-11875833Y199948D01*
X-11885357Y209471D01*
X-11894881Y228519D01*
X-11904405Y266614D01*
X-11904405Y314233D01*
X-11894881Y352329D01*
X-11885357Y371376D01*
X-11875833Y380900D01*
X-11856786Y390424D01*
X-11704405Y209471D02*
X-11694881Y199948D01*
X-11704405Y190424D01*
X-11713929Y199948D01*
X-11704405Y209471D01*
X-11704405Y190424D01*
X-11523452Y323757D02*
X-11523452Y190424D01*
X-11571071Y399948D02*
X-11618690Y257090D01*
X-11494881Y257090D01*
X-11380595Y390424D02*
X-11361548Y390424D01*
X-11342500Y380900D01*
X-11332976Y371376D01*
X-11323452Y352329D01*
X-11313929Y314233D01*
X-11313929Y266614D01*
X-11323452Y228519D01*
X-11332976Y209471D01*
X-11342500Y199948D01*
X-11361548Y190424D01*
X-11380595Y190424D01*
X-11399643Y199948D01*
X-11409167Y209471D01*
X-11418690Y228519D01*
X-11428214Y266614D01*
X-11428214Y314233D01*
X-11418690Y352329D01*
X-11409167Y371376D01*
X-11399643Y380900D01*
X-11380595Y390424D01*
X-11190119Y390424D02*
X-11171072Y390424D01*
X-11152024Y380900D01*
X-11142500Y371376D01*
X-11132976Y352329D01*
X-11123452Y314233D01*
X-11123452Y266614D01*
X-11132976Y228519D01*
X-11142500Y209471D01*
X-11152024Y199948D01*
X-11171072Y190424D01*
X-11190119Y190424D01*
X-11209167Y199948D01*
X-11218690Y209471D01*
X-11228214Y228519D01*
X-11237738Y266614D01*
X-11237738Y314233D01*
X-11228214Y352329D01*
X-11218690Y371376D01*
X-11209167Y380900D01*
X-11190119Y390424D01*
X-11037738Y190424D02*
X-11037738Y323757D01*
X-11037738Y304710D02*
X-11028214Y314233D01*
X-11009167Y323757D01*
X-10980595Y323757D01*
X-10961548Y314233D01*
X-10952024Y295186D01*
X-10952024Y190424D01*
X-10952024Y295186D02*
X-10942500Y314233D01*
X-10923452Y323757D01*
X-10894881Y323757D01*
X-10875833Y314233D01*
X-10866310Y295186D01*
X-10866310Y190424D01*
X-10771072Y190424D02*
X-10771072Y323757D01*
X-10771072Y304710D02*
X-10761548Y314233D01*
X-10742500Y323757D01*
X-10713929Y323757D01*
X-10694881Y314233D01*
X-10685357Y295186D01*
X-10685357Y190424D01*
X-10685357Y295186D02*
X-10675833Y314233D01*
X-10656786Y323757D01*
X-10628214Y323757D01*
X-10609167Y314233D01*
X-10599643Y295186D01*
X-10599643Y190424D01*
X-10209167Y399948D02*
X-10380595Y142805D01*
X-9952024Y390424D02*
X-9932976Y390424D01*
X-9913929Y380900D01*
X-9904405Y371376D01*
X-9894881Y352329D01*
X-9885357Y314233D01*
X-9885357Y266614D01*
X-9894881Y228519D01*
X-9904405Y209471D01*
X-9913929Y199948D01*
X-9932976Y190424D01*
X-9952024Y190424D01*
X-9971072Y199948D01*
X-9980595Y209471D01*
X-9990119Y228519D01*
X-9999643Y266614D01*
X-9999643Y314233D01*
X-9990119Y352329D01*
X-9980595Y371376D01*
X-9971072Y380900D01*
X-9952024Y390424D01*
X-9799643Y209471D02*
X-9790119Y199948D01*
X-9799643Y190424D01*
X-9809167Y199948D01*
X-9799643Y209471D01*
X-9799643Y190424D01*
X-9666310Y390424D02*
X-9647262Y390424D01*
X-9628214Y380900D01*
X-9618691Y371376D01*
X-9609167Y352329D01*
X-9599643Y314233D01*
X-9599643Y266614D01*
X-9609167Y228519D01*
X-9618691Y209471D01*
X-9628214Y199948D01*
X-9647262Y190424D01*
X-9666310Y190424D01*
X-9685357Y199948D01*
X-9694881Y209471D01*
X-9704405Y228519D01*
X-9713929Y266614D01*
X-9713929Y314233D01*
X-9704405Y352329D01*
X-9694881Y371376D01*
X-9685357Y380900D01*
X-9666310Y390424D01*
X-9409167Y190424D02*
X-9523452Y190424D01*
X-9466310Y190424D02*
X-9466310Y390424D01*
X-9485357Y361852D01*
X-9504405Y342805D01*
X-9523452Y333281D01*
X-9228214Y390424D02*
X-9323452Y390424D01*
X-9332976Y295186D01*
X-9323452Y304710D01*
X-9304405Y314233D01*
X-9256786Y314233D01*
X-9237738Y304710D01*
X-9228214Y295186D01*
X-9218691Y276138D01*
X-9218691Y228519D01*
X-9228214Y209471D01*
X-9237738Y199948D01*
X-9256786Y190424D01*
X-9304405Y190424D01*
X-9323452Y199948D01*
X-9332976Y209471D01*
X-9152024Y390424D02*
X-9018691Y390424D01*
X-9104405Y190424D01*
X-8952024Y390424D02*
X-8952024Y352329D01*
X-8875833Y390424D02*
X-8875833Y352329D01*
X-8580595Y114233D02*
X-8590119Y123757D01*
X-8609167Y152329D01*
X-8618691Y171376D01*
X-8628214Y199948D01*
X-8637738Y247567D01*
X-8637738Y285662D01*
X-8628214Y333281D01*
X-8618691Y361852D01*
X-8609167Y380900D01*
X-8590119Y409471D01*
X-8580595Y418995D01*
X-8399643Y190424D02*
X-8513929Y190424D01*
X-8456786Y190424D02*
X-8456786Y390424D01*
X-8475833Y361852D01*
X-8494881Y342805D01*
X-8513929Y333281D01*
X-8304405Y190424D02*
X-8266310Y190424D01*
X-8247262Y199948D01*
X-8237738Y209471D01*
X-8218690Y238043D01*
X-8209167Y276138D01*
X-8209167Y352329D01*
X-8218690Y371376D01*
X-8228214Y380900D01*
X-8247262Y390424D01*
X-8285357Y390424D01*
X-8304405Y380900D01*
X-8313929Y371376D01*
X-8323452Y352329D01*
X-8323452Y304710D01*
X-8313929Y285662D01*
X-8304405Y276138D01*
X-8285357Y266614D01*
X-8247262Y266614D01*
X-8228214Y276138D01*
X-8218690Y285662D01*
X-8209167Y304710D01*
X-8094881Y304710D02*
X-8113929Y314233D01*
X-8123452Y323757D01*
X-8132976Y342805D01*
X-8132976Y352329D01*
X-8123452Y371376D01*
X-8113929Y380900D01*
X-8094881Y390424D01*
X-8056786Y390424D01*
X-8037738Y380900D01*
X-8028214Y371376D01*
X-8018690Y352329D01*
X-8018690Y342805D01*
X-8028214Y323757D01*
X-8037738Y314233D01*
X-8056786Y304710D01*
X-8094881Y304710D01*
X-8113929Y295186D01*
X-8123452Y285662D01*
X-8132976Y266614D01*
X-8132976Y228519D01*
X-8123452Y209471D01*
X-8113929Y199948D01*
X-8094881Y190424D01*
X-8056786Y190424D01*
X-8037738Y199948D01*
X-8028214Y209471D01*
X-8018690Y228519D01*
X-8018690Y266614D01*
X-8028214Y285662D01*
X-8037738Y295186D01*
X-8056786Y304710D01*
X-7780595Y190424D02*
X-7780595Y390424D01*
X-7694881Y190424D02*
X-7694881Y295186D01*
X-7704405Y314233D01*
X-7723452Y323757D01*
X-7752024Y323757D01*
X-7771071Y314233D01*
X-7780595Y304710D01*
X-7571071Y190424D02*
X-7590119Y199948D01*
X-7599643Y209471D01*
X-7609167Y228519D01*
X-7609167Y285662D01*
X-7599643Y304710D01*
X-7590119Y314233D01*
X-7571071Y323757D01*
X-7542500Y323757D01*
X-7523452Y314233D01*
X-7513929Y304710D01*
X-7504405Y285662D01*
X-7504405Y228519D01*
X-7513929Y209471D01*
X-7523452Y199948D01*
X-7542500Y190424D01*
X-7571071Y190424D01*
X-7390119Y190424D02*
X-7409167Y199948D01*
X-7418690Y218995D01*
X-7418690Y390424D01*
X-7237738Y199948D02*
X-7256786Y190424D01*
X-7294881Y190424D01*
X-7313929Y199948D01*
X-7323452Y218995D01*
X-7323452Y295186D01*
X-7313929Y314233D01*
X-7294881Y323757D01*
X-7256786Y323757D01*
X-7237738Y314233D01*
X-7228214Y295186D01*
X-7228214Y276138D01*
X-7323452Y257090D01*
X-7152024Y199948D02*
X-7132976Y190424D01*
X-7094881Y190424D01*
X-7075833Y199948D01*
X-7066310Y218995D01*
X-7066310Y228519D01*
X-7075833Y247567D01*
X-7094881Y257090D01*
X-7123452Y257090D01*
X-7142500Y266614D01*
X-7152024Y285662D01*
X-7152024Y295186D01*
X-7142500Y314233D01*
X-7123452Y323757D01*
X-7094881Y323757D01*
X-7075833Y314233D01*
X-6999643Y114233D02*
X-6990119Y123757D01*
X-6971071Y152329D01*
X-6961548Y171376D01*
X-6952024Y199948D01*
X-6942500Y247567D01*
X-6942500Y285662D01*
X-6952024Y333281D01*
X-6961548Y361852D01*
X-6971071Y380900D01*
X-6990119Y409471D01*
X-6999643Y418995D01*
D13*
X-12152500Y16900D02*
G75*
G03*
X-12152500Y16900I-25400J0D01*
G01*
D11*
X-11856786Y126424D02*
X-11837738Y126424D01*
X-11818690Y116900D01*
X-11809167Y107376D01*
X-11799643Y88329D01*
X-11790119Y50233D01*
X-11790119Y2614D01*
X-11799643Y-35481D01*
X-11809167Y-54528D01*
X-11818690Y-64052D01*
X-11837738Y-73576D01*
X-11856786Y-73576D01*
X-11875833Y-64052D01*
X-11885357Y-54528D01*
X-11894881Y-35481D01*
X-11904405Y2614D01*
X-11904405Y50233D01*
X-11894881Y88329D01*
X-11885357Y107376D01*
X-11875833Y116900D01*
X-11856786Y126424D01*
X-11704405Y-54528D02*
X-11694881Y-64052D01*
X-11704405Y-73576D01*
X-11713929Y-64052D01*
X-11704405Y-54528D01*
X-11704405Y-73576D01*
X-11513929Y126424D02*
X-11609167Y126424D01*
X-11618690Y31186D01*
X-11609167Y40710D01*
X-11590119Y50233D01*
X-11542500Y50233D01*
X-11523452Y40710D01*
X-11513929Y31186D01*
X-11504405Y12138D01*
X-11504405Y-35481D01*
X-11513929Y-54528D01*
X-11523452Y-64052D01*
X-11542500Y-73576D01*
X-11590119Y-73576D01*
X-11609167Y-64052D01*
X-11618690Y-54528D01*
X-11380595Y126424D02*
X-11361548Y126424D01*
X-11342500Y116900D01*
X-11332976Y107376D01*
X-11323452Y88329D01*
X-11313929Y50233D01*
X-11313929Y2614D01*
X-11323452Y-35481D01*
X-11332976Y-54528D01*
X-11342500Y-64052D01*
X-11361548Y-73576D01*
X-11380595Y-73576D01*
X-11399643Y-64052D01*
X-11409167Y-54528D01*
X-11418690Y-35481D01*
X-11428214Y2614D01*
X-11428214Y50233D01*
X-11418690Y88329D01*
X-11409167Y107376D01*
X-11399643Y116900D01*
X-11380595Y126424D01*
X-11199643Y40710D02*
X-11218690Y50233D01*
X-11228214Y59757D01*
X-11237738Y78805D01*
X-11237738Y88329D01*
X-11228214Y107376D01*
X-11218690Y116900D01*
X-11199643Y126424D01*
X-11161548Y126424D01*
X-11142500Y116900D01*
X-11132976Y107376D01*
X-11123452Y88329D01*
X-11123452Y78805D01*
X-11132976Y59757D01*
X-11142500Y50233D01*
X-11161548Y40710D01*
X-11199643Y40710D01*
X-11218690Y31186D01*
X-11228214Y21662D01*
X-11237738Y2614D01*
X-11237738Y-35481D01*
X-11228214Y-54528D01*
X-11218690Y-64052D01*
X-11199643Y-73576D01*
X-11161548Y-73576D01*
X-11142500Y-64052D01*
X-11132976Y-54528D01*
X-11123452Y-35481D01*
X-11123452Y2614D01*
X-11132976Y21662D01*
X-11142500Y31186D01*
X-11161548Y40710D01*
X-11037738Y-73576D02*
X-11037738Y59757D01*
X-11037738Y40710D02*
X-11028214Y50233D01*
X-11009167Y59757D01*
X-10980595Y59757D01*
X-10961548Y50233D01*
X-10952024Y31186D01*
X-10952024Y-73576D01*
X-10952024Y31186D02*
X-10942500Y50233D01*
X-10923452Y59757D01*
X-10894881Y59757D01*
X-10875833Y50233D01*
X-10866310Y31186D01*
X-10866310Y-73576D01*
X-10771072Y-73576D02*
X-10771072Y59757D01*
X-10771072Y40710D02*
X-10761548Y50233D01*
X-10742500Y59757D01*
X-10713929Y59757D01*
X-10694881Y50233D01*
X-10685357Y31186D01*
X-10685357Y-73576D01*
X-10685357Y31186D02*
X-10675833Y50233D01*
X-10656786Y59757D01*
X-10628214Y59757D01*
X-10609167Y50233D01*
X-10599643Y31186D01*
X-10599643Y-73576D01*
X-10209167Y135948D02*
X-10380595Y-121195D01*
X-9952024Y126424D02*
X-9932976Y126424D01*
X-9913929Y116900D01*
X-9904405Y107376D01*
X-9894881Y88329D01*
X-9885357Y50233D01*
X-9885357Y2614D01*
X-9894881Y-35481D01*
X-9904405Y-54528D01*
X-9913929Y-64052D01*
X-9932976Y-73576D01*
X-9952024Y-73576D01*
X-9971072Y-64052D01*
X-9980595Y-54528D01*
X-9990119Y-35481D01*
X-9999643Y2614D01*
X-9999643Y50233D01*
X-9990119Y88329D01*
X-9980595Y107376D01*
X-9971072Y116900D01*
X-9952024Y126424D01*
X-9799643Y-54528D02*
X-9790119Y-64052D01*
X-9799643Y-73576D01*
X-9809167Y-64052D01*
X-9799643Y-54528D01*
X-9799643Y-73576D01*
X-9666310Y126424D02*
X-9647262Y126424D01*
X-9628214Y116900D01*
X-9618691Y107376D01*
X-9609167Y88329D01*
X-9599643Y50233D01*
X-9599643Y2614D01*
X-9609167Y-35481D01*
X-9618691Y-54528D01*
X-9628214Y-64052D01*
X-9647262Y-73576D01*
X-9666310Y-73576D01*
X-9685357Y-64052D01*
X-9694881Y-54528D01*
X-9704405Y-35481D01*
X-9713929Y2614D01*
X-9713929Y50233D01*
X-9704405Y88329D01*
X-9694881Y107376D01*
X-9685357Y116900D01*
X-9666310Y126424D01*
X-9523452Y107376D02*
X-9513929Y116900D01*
X-9494881Y126424D01*
X-9447262Y126424D01*
X-9428214Y116900D01*
X-9418691Y107376D01*
X-9409167Y88329D01*
X-9409167Y69281D01*
X-9418691Y40710D01*
X-9532976Y-73576D01*
X-9409167Y-73576D01*
X-9285357Y126424D02*
X-9266310Y126424D01*
X-9247262Y116900D01*
X-9237738Y107376D01*
X-9228214Y88329D01*
X-9218691Y50233D01*
X-9218691Y2614D01*
X-9228214Y-35481D01*
X-9237738Y-54528D01*
X-9247262Y-64052D01*
X-9266310Y-73576D01*
X-9285357Y-73576D01*
X-9304405Y-64052D01*
X-9313929Y-54528D01*
X-9323452Y-35481D01*
X-9332976Y2614D01*
X-9332976Y50233D01*
X-9323452Y88329D01*
X-9313929Y107376D01*
X-9304405Y116900D01*
X-9285357Y126424D01*
X-9094881Y126424D02*
X-9075833Y126424D01*
X-9056786Y116900D01*
X-9047262Y107376D01*
X-9037738Y88329D01*
X-9028214Y50233D01*
X-9028214Y2614D01*
X-9037738Y-35481D01*
X-9047262Y-54528D01*
X-9056786Y-64052D01*
X-9075833Y-73576D01*
X-9094881Y-73576D01*
X-9113929Y-64052D01*
X-9123452Y-54528D01*
X-9132976Y-35481D01*
X-9142500Y2614D01*
X-9142500Y50233D01*
X-9132976Y88329D01*
X-9123452Y107376D01*
X-9113929Y116900D01*
X-9094881Y126424D01*
X-8952024Y126424D02*
X-8952024Y88329D01*
X-8875833Y126424D02*
X-8875833Y88329D01*
X-8580595Y-149767D02*
X-8590119Y-140243D01*
X-8609167Y-111671D01*
X-8618691Y-92624D01*
X-8628214Y-64052D01*
X-8637738Y-16433D01*
X-8637738Y21662D01*
X-8628214Y69281D01*
X-8618691Y97852D01*
X-8609167Y116900D01*
X-8590119Y145472D01*
X-8580595Y154995D01*
X-8523452Y126424D02*
X-8399643Y126424D01*
X-8466310Y50233D01*
X-8437738Y50233D01*
X-8418691Y40710D01*
X-8409167Y31186D01*
X-8399643Y12138D01*
X-8399643Y-35481D01*
X-8409167Y-54528D01*
X-8418691Y-64052D01*
X-8437738Y-73576D01*
X-8494881Y-73576D01*
X-8513929Y-64052D01*
X-8523452Y-54528D01*
X-8161548Y-73576D02*
X-8161548Y126424D01*
X-8075833Y-73576D02*
X-8075833Y31186D01*
X-8085357Y50233D01*
X-8104405Y59757D01*
X-8132976Y59757D01*
X-8152024Y50233D01*
X-8161548Y40710D01*
X-7952024Y-73576D02*
X-7971071Y-64052D01*
X-7980595Y-54528D01*
X-7990119Y-35481D01*
X-7990119Y21662D01*
X-7980595Y40710D01*
X-7971071Y50233D01*
X-7952024Y59757D01*
X-7923452Y59757D01*
X-7904405Y50233D01*
X-7894881Y40710D01*
X-7885357Y21662D01*
X-7885357Y-35481D01*
X-7894881Y-54528D01*
X-7904405Y-64052D01*
X-7923452Y-73576D01*
X-7952024Y-73576D01*
X-7771071Y-73576D02*
X-7790119Y-64052D01*
X-7799643Y-45005D01*
X-7799643Y126424D01*
X-7618690Y-64052D02*
X-7637738Y-73576D01*
X-7675833Y-73576D01*
X-7694881Y-64052D01*
X-7704405Y-45005D01*
X-7704405Y31186D01*
X-7694881Y50233D01*
X-7675833Y59757D01*
X-7637738Y59757D01*
X-7618690Y50233D01*
X-7609167Y31186D01*
X-7609167Y12138D01*
X-7704405Y-6909D01*
X-7532976Y-64052D02*
X-7513929Y-73576D01*
X-7475833Y-73576D01*
X-7456786Y-64052D01*
X-7447262Y-45005D01*
X-7447262Y-35481D01*
X-7456786Y-16433D01*
X-7475833Y-6909D01*
X-7504405Y-6909D01*
X-7523452Y2614D01*
X-7532976Y21662D01*
X-7532976Y31186D01*
X-7523452Y50233D01*
X-7504405Y59757D01*
X-7475833Y59757D01*
X-7456786Y50233D01*
X-7380595Y-149767D02*
X-7371071Y-140243D01*
X-7352024Y-111671D01*
X-7342500Y-92624D01*
X-7332976Y-64052D01*
X-7323452Y-16433D01*
X-7323452Y21662D01*
X-7332976Y69281D01*
X-7342500Y97852D01*
X-7352024Y116900D01*
X-7371071Y145472D01*
X-7380595Y154995D01*
D14*
X-12192500Y-207100D02*
X-12192500Y-287100D01*
X-12232500Y-247100D02*
X-12152500Y-247100D01*
D11*
X-11856786Y-137576D02*
X-11837738Y-137576D01*
X-11818690Y-147100D01*
X-11809167Y-156624D01*
X-11799643Y-175671D01*
X-11790119Y-213767D01*
X-11790119Y-261386D01*
X-11799643Y-299481D01*
X-11809167Y-318529D01*
X-11818690Y-328052D01*
X-11837738Y-337576D01*
X-11856786Y-337576D01*
X-11875833Y-328052D01*
X-11885357Y-318529D01*
X-11894881Y-299481D01*
X-11904405Y-261386D01*
X-11904405Y-213767D01*
X-11894881Y-175671D01*
X-11885357Y-156624D01*
X-11875833Y-147100D01*
X-11856786Y-137576D01*
X-11704405Y-318529D02*
X-11694881Y-328052D01*
X-11704405Y-337576D01*
X-11713929Y-328052D01*
X-11704405Y-318529D01*
X-11704405Y-337576D01*
X-11580595Y-223290D02*
X-11599643Y-213767D01*
X-11609167Y-204243D01*
X-11618690Y-185195D01*
X-11618690Y-175671D01*
X-11609167Y-156624D01*
X-11599643Y-147100D01*
X-11580595Y-137576D01*
X-11542500Y-137576D01*
X-11523452Y-147100D01*
X-11513929Y-156624D01*
X-11504405Y-175671D01*
X-11504405Y-185195D01*
X-11513929Y-204243D01*
X-11523452Y-213767D01*
X-11542500Y-223290D01*
X-11580595Y-223290D01*
X-11599643Y-232814D01*
X-11609167Y-242338D01*
X-11618690Y-261386D01*
X-11618690Y-299481D01*
X-11609167Y-318529D01*
X-11599643Y-328052D01*
X-11580595Y-337576D01*
X-11542500Y-337576D01*
X-11523452Y-328052D01*
X-11513929Y-318529D01*
X-11504405Y-299481D01*
X-11504405Y-261386D01*
X-11513929Y-242338D01*
X-11523452Y-232814D01*
X-11542500Y-223290D01*
X-11380595Y-137576D02*
X-11361548Y-137576D01*
X-11342500Y-147100D01*
X-11332976Y-156624D01*
X-11323452Y-175671D01*
X-11313929Y-213767D01*
X-11313929Y-261386D01*
X-11323452Y-299481D01*
X-11332976Y-318529D01*
X-11342500Y-328052D01*
X-11361548Y-337576D01*
X-11380595Y-337576D01*
X-11399643Y-328052D01*
X-11409167Y-318529D01*
X-11418690Y-299481D01*
X-11428214Y-261386D01*
X-11428214Y-213767D01*
X-11418690Y-175671D01*
X-11409167Y-156624D01*
X-11399643Y-147100D01*
X-11380595Y-137576D01*
X-11190119Y-137576D02*
X-11171072Y-137576D01*
X-11152024Y-147100D01*
X-11142500Y-156624D01*
X-11132976Y-175671D01*
X-11123452Y-213767D01*
X-11123452Y-261386D01*
X-11132976Y-299481D01*
X-11142500Y-318529D01*
X-11152024Y-328052D01*
X-11171072Y-337576D01*
X-11190119Y-337576D01*
X-11209167Y-328052D01*
X-11218690Y-318529D01*
X-11228214Y-299481D01*
X-11237738Y-261386D01*
X-11237738Y-213767D01*
X-11228214Y-175671D01*
X-11218690Y-156624D01*
X-11209167Y-147100D01*
X-11190119Y-137576D01*
X-11037738Y-337576D02*
X-11037738Y-204243D01*
X-11037738Y-223290D02*
X-11028214Y-213767D01*
X-11009167Y-204243D01*
X-10980595Y-204243D01*
X-10961548Y-213767D01*
X-10952024Y-232814D01*
X-10952024Y-337576D01*
X-10952024Y-232814D02*
X-10942500Y-213767D01*
X-10923452Y-204243D01*
X-10894881Y-204243D01*
X-10875833Y-213767D01*
X-10866310Y-232814D01*
X-10866310Y-337576D01*
X-10771072Y-337576D02*
X-10771072Y-204243D01*
X-10771072Y-223290D02*
X-10761548Y-213767D01*
X-10742500Y-204243D01*
X-10713929Y-204243D01*
X-10694881Y-213767D01*
X-10685357Y-232814D01*
X-10685357Y-337576D01*
X-10685357Y-232814D02*
X-10675833Y-213767D01*
X-10656786Y-204243D01*
X-10628214Y-204243D01*
X-10609167Y-213767D01*
X-10599643Y-232814D01*
X-10599643Y-337576D01*
X-10209167Y-128052D02*
X-10380595Y-385195D01*
X-9952024Y-137576D02*
X-9932976Y-137576D01*
X-9913929Y-147100D01*
X-9904405Y-156624D01*
X-9894881Y-175671D01*
X-9885357Y-213767D01*
X-9885357Y-261386D01*
X-9894881Y-299481D01*
X-9904405Y-318529D01*
X-9913929Y-328052D01*
X-9932976Y-337576D01*
X-9952024Y-337576D01*
X-9971072Y-328052D01*
X-9980595Y-318529D01*
X-9990119Y-299481D01*
X-9999643Y-261386D01*
X-9999643Y-213767D01*
X-9990119Y-175671D01*
X-9980595Y-156624D01*
X-9971072Y-147100D01*
X-9952024Y-137576D01*
X-9799643Y-318529D02*
X-9790119Y-328052D01*
X-9799643Y-337576D01*
X-9809167Y-328052D01*
X-9799643Y-318529D01*
X-9799643Y-337576D01*
X-9666310Y-137576D02*
X-9647262Y-137576D01*
X-9628214Y-147100D01*
X-9618691Y-156624D01*
X-9609167Y-175671D01*
X-9599643Y-213767D01*
X-9599643Y-261386D01*
X-9609167Y-299481D01*
X-9618691Y-318529D01*
X-9628214Y-328052D01*
X-9647262Y-337576D01*
X-9666310Y-337576D01*
X-9685357Y-328052D01*
X-9694881Y-318529D01*
X-9704405Y-299481D01*
X-9713929Y-261386D01*
X-9713929Y-213767D01*
X-9704405Y-175671D01*
X-9694881Y-156624D01*
X-9685357Y-147100D01*
X-9666310Y-137576D01*
X-9532976Y-137576D02*
X-9409167Y-137576D01*
X-9475833Y-213767D01*
X-9447262Y-213767D01*
X-9428214Y-223290D01*
X-9418691Y-232814D01*
X-9409167Y-251862D01*
X-9409167Y-299481D01*
X-9418691Y-318529D01*
X-9428214Y-328052D01*
X-9447262Y-337576D01*
X-9504405Y-337576D01*
X-9523452Y-328052D01*
X-9532976Y-318529D01*
X-9218691Y-337576D02*
X-9332976Y-337576D01*
X-9275833Y-337576D02*
X-9275833Y-137576D01*
X-9294881Y-166148D01*
X-9313929Y-185195D01*
X-9332976Y-194719D01*
X-9037738Y-137576D02*
X-9132976Y-137576D01*
X-9142500Y-232814D01*
X-9132976Y-223290D01*
X-9113929Y-213767D01*
X-9066310Y-213767D01*
X-9047262Y-223290D01*
X-9037738Y-232814D01*
X-9028214Y-251862D01*
X-9028214Y-299481D01*
X-9037738Y-318529D01*
X-9047262Y-328052D01*
X-9066310Y-337576D01*
X-9113929Y-337576D01*
X-9132976Y-328052D01*
X-9142500Y-318529D01*
X-8952024Y-137576D02*
X-8952024Y-175671D01*
X-8875833Y-137576D02*
X-8875833Y-175671D01*
X-8580595Y-413767D02*
X-8590119Y-404243D01*
X-8609167Y-375671D01*
X-8618691Y-356624D01*
X-8628214Y-328052D01*
X-8637738Y-280433D01*
X-8637738Y-242338D01*
X-8628214Y-194719D01*
X-8618691Y-166148D01*
X-8609167Y-147100D01*
X-8590119Y-118528D01*
X-8580595Y-109005D01*
X-8399643Y-337576D02*
X-8513929Y-337576D01*
X-8456786Y-337576D02*
X-8456786Y-137576D01*
X-8475833Y-166148D01*
X-8494881Y-185195D01*
X-8513929Y-194719D01*
X-8228214Y-137576D02*
X-8266310Y-137576D01*
X-8285357Y-147100D01*
X-8294881Y-156624D01*
X-8313929Y-185195D01*
X-8323452Y-223290D01*
X-8323452Y-299481D01*
X-8313929Y-318529D01*
X-8304405Y-328052D01*
X-8285357Y-337576D01*
X-8247262Y-337576D01*
X-8228214Y-328052D01*
X-8218690Y-318529D01*
X-8209167Y-299481D01*
X-8209167Y-251862D01*
X-8218690Y-232814D01*
X-8228214Y-223290D01*
X-8247262Y-213767D01*
X-8285357Y-213767D01*
X-8304405Y-223290D01*
X-8313929Y-232814D01*
X-8323452Y-251862D01*
X-7971071Y-337576D02*
X-7971071Y-137576D01*
X-7885357Y-337576D02*
X-7885357Y-232814D01*
X-7894881Y-213767D01*
X-7913929Y-204243D01*
X-7942500Y-204243D01*
X-7961548Y-213767D01*
X-7971071Y-223290D01*
X-7761548Y-337576D02*
X-7780595Y-328052D01*
X-7790119Y-318529D01*
X-7799643Y-299481D01*
X-7799643Y-242338D01*
X-7790119Y-223290D01*
X-7780595Y-213767D01*
X-7761548Y-204243D01*
X-7732976Y-204243D01*
X-7713929Y-213767D01*
X-7704405Y-223290D01*
X-7694881Y-242338D01*
X-7694881Y-299481D01*
X-7704405Y-318529D01*
X-7713929Y-328052D01*
X-7732976Y-337576D01*
X-7761548Y-337576D01*
X-7580595Y-337576D02*
X-7599643Y-328052D01*
X-7609167Y-309005D01*
X-7609167Y-137576D01*
X-7428214Y-328052D02*
X-7447262Y-337576D01*
X-7485357Y-337576D01*
X-7504405Y-328052D01*
X-7513929Y-309005D01*
X-7513929Y-232814D01*
X-7504405Y-213767D01*
X-7485357Y-204243D01*
X-7447262Y-204243D01*
X-7428214Y-213767D01*
X-7418690Y-232814D01*
X-7418690Y-251862D01*
X-7513929Y-270910D01*
X-7342500Y-328052D02*
X-7323452Y-337576D01*
X-7285357Y-337576D01*
X-7266310Y-328052D01*
X-7256786Y-309005D01*
X-7256786Y-299481D01*
X-7266310Y-280433D01*
X-7285357Y-270910D01*
X-7313929Y-270910D01*
X-7332976Y-261386D01*
X-7342500Y-242338D01*
X-7342500Y-232814D01*
X-7332976Y-213767D01*
X-7313929Y-204243D01*
X-7285357Y-204243D01*
X-7266310Y-213767D01*
X-7190119Y-413767D02*
X-7180595Y-404243D01*
X-7161548Y-375671D01*
X-7152024Y-356624D01*
X-7142500Y-328052D01*
X-7132976Y-280433D01*
X-7132976Y-242338D01*
X-7142500Y-194719D01*
X-7152024Y-166148D01*
X-7161548Y-147100D01*
X-7180595Y-118528D01*
X-7190119Y-109005D01*
D15*
X-12165519Y-542531D02*
X-12165519Y-479669D01*
X-12228381Y-479669D01*
X-12228381Y-542531D01*
X-12165519Y-542531D01*
D11*
X-11856786Y-401576D02*
X-11837738Y-401576D01*
X-11818690Y-411100D01*
X-11809167Y-420624D01*
X-11799643Y-439671D01*
X-11790119Y-477767D01*
X-11790119Y-525386D01*
X-11799643Y-563481D01*
X-11809167Y-582529D01*
X-11818690Y-592052D01*
X-11837738Y-601576D01*
X-11856786Y-601576D01*
X-11875833Y-592052D01*
X-11885357Y-582529D01*
X-11894881Y-563481D01*
X-11904405Y-525386D01*
X-11904405Y-477767D01*
X-11894881Y-439671D01*
X-11885357Y-420624D01*
X-11875833Y-411100D01*
X-11856786Y-401576D01*
X-11704405Y-582529D02*
X-11694881Y-592052D01*
X-11704405Y-601576D01*
X-11713929Y-592052D01*
X-11704405Y-582529D01*
X-11704405Y-601576D01*
X-11580595Y-487290D02*
X-11599643Y-477767D01*
X-11609167Y-468243D01*
X-11618690Y-449195D01*
X-11618690Y-439671D01*
X-11609167Y-420624D01*
X-11599643Y-411100D01*
X-11580595Y-401576D01*
X-11542500Y-401576D01*
X-11523452Y-411100D01*
X-11513929Y-420624D01*
X-11504405Y-439671D01*
X-11504405Y-449195D01*
X-11513929Y-468243D01*
X-11523452Y-477767D01*
X-11542500Y-487290D01*
X-11580595Y-487290D01*
X-11599643Y-496814D01*
X-11609167Y-506338D01*
X-11618690Y-525386D01*
X-11618690Y-563481D01*
X-11609167Y-582529D01*
X-11599643Y-592052D01*
X-11580595Y-601576D01*
X-11542500Y-601576D01*
X-11523452Y-592052D01*
X-11513929Y-582529D01*
X-11504405Y-563481D01*
X-11504405Y-525386D01*
X-11513929Y-506338D01*
X-11523452Y-496814D01*
X-11542500Y-487290D01*
X-11390119Y-487290D02*
X-11409167Y-477767D01*
X-11418690Y-468243D01*
X-11428214Y-449195D01*
X-11428214Y-439671D01*
X-11418690Y-420624D01*
X-11409167Y-411100D01*
X-11390119Y-401576D01*
X-11352024Y-401576D01*
X-11332976Y-411100D01*
X-11323452Y-420624D01*
X-11313929Y-439671D01*
X-11313929Y-449195D01*
X-11323452Y-468243D01*
X-11332976Y-477767D01*
X-11352024Y-487290D01*
X-11390119Y-487290D01*
X-11409167Y-496814D01*
X-11418690Y-506338D01*
X-11428214Y-525386D01*
X-11428214Y-563481D01*
X-11418690Y-582529D01*
X-11409167Y-592052D01*
X-11390119Y-601576D01*
X-11352024Y-601576D01*
X-11332976Y-592052D01*
X-11323452Y-582529D01*
X-11313929Y-563481D01*
X-11313929Y-525386D01*
X-11323452Y-506338D01*
X-11332976Y-496814D01*
X-11352024Y-487290D01*
X-11218690Y-601576D02*
X-11180595Y-601576D01*
X-11161548Y-592052D01*
X-11152024Y-582529D01*
X-11132976Y-553957D01*
X-11123452Y-515862D01*
X-11123452Y-439671D01*
X-11132976Y-420624D01*
X-11142500Y-411100D01*
X-11161548Y-401576D01*
X-11199643Y-401576D01*
X-11218690Y-411100D01*
X-11228214Y-420624D01*
X-11237738Y-439671D01*
X-11237738Y-487290D01*
X-11228214Y-506338D01*
X-11218690Y-515862D01*
X-11199643Y-525386D01*
X-11161548Y-525386D01*
X-11142500Y-515862D01*
X-11132976Y-506338D01*
X-11123452Y-487290D01*
X-11037738Y-601576D02*
X-11037738Y-468243D01*
X-11037738Y-487290D02*
X-11028214Y-477767D01*
X-11009167Y-468243D01*
X-10980595Y-468243D01*
X-10961548Y-477767D01*
X-10952024Y-496814D01*
X-10952024Y-601576D01*
X-10952024Y-496814D02*
X-10942500Y-477767D01*
X-10923452Y-468243D01*
X-10894881Y-468243D01*
X-10875833Y-477767D01*
X-10866310Y-496814D01*
X-10866310Y-601576D01*
X-10771072Y-601576D02*
X-10771072Y-468243D01*
X-10771072Y-487290D02*
X-10761548Y-477767D01*
X-10742500Y-468243D01*
X-10713929Y-468243D01*
X-10694881Y-477767D01*
X-10685357Y-496814D01*
X-10685357Y-601576D01*
X-10685357Y-496814D02*
X-10675833Y-477767D01*
X-10656786Y-468243D01*
X-10628214Y-468243D01*
X-10609167Y-477767D01*
X-10599643Y-496814D01*
X-10599643Y-601576D01*
X-10209167Y-392052D02*
X-10380595Y-649195D01*
X-9952024Y-401576D02*
X-9932976Y-401576D01*
X-9913929Y-411100D01*
X-9904405Y-420624D01*
X-9894881Y-439671D01*
X-9885357Y-477767D01*
X-9885357Y-525386D01*
X-9894881Y-563481D01*
X-9904405Y-582529D01*
X-9913929Y-592052D01*
X-9932976Y-601576D01*
X-9952024Y-601576D01*
X-9971072Y-592052D01*
X-9980595Y-582529D01*
X-9990119Y-563481D01*
X-9999643Y-525386D01*
X-9999643Y-477767D01*
X-9990119Y-439671D01*
X-9980595Y-420624D01*
X-9971072Y-411100D01*
X-9952024Y-401576D01*
X-9799643Y-582529D02*
X-9790119Y-592052D01*
X-9799643Y-601576D01*
X-9809167Y-592052D01*
X-9799643Y-582529D01*
X-9799643Y-601576D01*
X-9666310Y-401576D02*
X-9647262Y-401576D01*
X-9628214Y-411100D01*
X-9618691Y-420624D01*
X-9609167Y-439671D01*
X-9599643Y-477767D01*
X-9599643Y-525386D01*
X-9609167Y-563481D01*
X-9618691Y-582529D01*
X-9628214Y-592052D01*
X-9647262Y-601576D01*
X-9666310Y-601576D01*
X-9685357Y-592052D01*
X-9694881Y-582529D01*
X-9704405Y-563481D01*
X-9713929Y-525386D01*
X-9713929Y-477767D01*
X-9704405Y-439671D01*
X-9694881Y-420624D01*
X-9685357Y-411100D01*
X-9666310Y-401576D01*
X-9532976Y-401576D02*
X-9409167Y-401576D01*
X-9475833Y-477767D01*
X-9447262Y-477767D01*
X-9428214Y-487290D01*
X-9418691Y-496814D01*
X-9409167Y-515862D01*
X-9409167Y-563481D01*
X-9418691Y-582529D01*
X-9428214Y-592052D01*
X-9447262Y-601576D01*
X-9504405Y-601576D01*
X-9523452Y-592052D01*
X-9532976Y-582529D01*
X-9228214Y-401576D02*
X-9323452Y-401576D01*
X-9332976Y-496814D01*
X-9323452Y-487290D01*
X-9304405Y-477767D01*
X-9256786Y-477767D01*
X-9237738Y-487290D01*
X-9228214Y-496814D01*
X-9218691Y-515862D01*
X-9218691Y-563481D01*
X-9228214Y-582529D01*
X-9237738Y-592052D01*
X-9256786Y-601576D01*
X-9304405Y-601576D01*
X-9323452Y-592052D01*
X-9332976Y-582529D01*
X-9094881Y-401576D02*
X-9075833Y-401576D01*
X-9056786Y-411100D01*
X-9047262Y-420624D01*
X-9037738Y-439671D01*
X-9028214Y-477767D01*
X-9028214Y-525386D01*
X-9037738Y-563481D01*
X-9047262Y-582529D01*
X-9056786Y-592052D01*
X-9075833Y-601576D01*
X-9094881Y-601576D01*
X-9113929Y-592052D01*
X-9123452Y-582529D01*
X-9132976Y-563481D01*
X-9142500Y-525386D01*
X-9142500Y-477767D01*
X-9132976Y-439671D01*
X-9123452Y-420624D01*
X-9113929Y-411100D01*
X-9094881Y-401576D01*
X-8952024Y-401576D02*
X-8952024Y-439671D01*
X-8875833Y-401576D02*
X-8875833Y-439671D01*
X-8580595Y-677767D02*
X-8590119Y-668243D01*
X-8609167Y-639671D01*
X-8618691Y-620624D01*
X-8628214Y-592052D01*
X-8637738Y-544433D01*
X-8637738Y-506338D01*
X-8628214Y-458719D01*
X-8618691Y-430148D01*
X-8609167Y-411100D01*
X-8590119Y-382528D01*
X-8580595Y-373005D01*
X-8523452Y-401576D02*
X-8399643Y-401576D01*
X-8466310Y-477767D01*
X-8437738Y-477767D01*
X-8418691Y-487290D01*
X-8409167Y-496814D01*
X-8399643Y-515862D01*
X-8399643Y-563481D01*
X-8409167Y-582529D01*
X-8418691Y-592052D01*
X-8437738Y-601576D01*
X-8494881Y-601576D01*
X-8513929Y-592052D01*
X-8523452Y-582529D01*
X-8323452Y-420624D02*
X-8313929Y-411100D01*
X-8294881Y-401576D01*
X-8247262Y-401576D01*
X-8228214Y-411100D01*
X-8218690Y-420624D01*
X-8209167Y-439671D01*
X-8209167Y-458719D01*
X-8218690Y-487290D01*
X-8332976Y-601576D01*
X-8209167Y-601576D01*
X-7971071Y-601576D02*
X-7971071Y-401576D01*
X-7885357Y-601576D02*
X-7885357Y-496814D01*
X-7894881Y-477767D01*
X-7913929Y-468243D01*
X-7942500Y-468243D01*
X-7961548Y-477767D01*
X-7971071Y-487290D01*
X-7761548Y-601576D02*
X-7780595Y-592052D01*
X-7790119Y-582529D01*
X-7799643Y-563481D01*
X-7799643Y-506338D01*
X-7790119Y-487290D01*
X-7780595Y-477767D01*
X-7761548Y-468243D01*
X-7732976Y-468243D01*
X-7713929Y-477767D01*
X-7704405Y-487290D01*
X-7694881Y-506338D01*
X-7694881Y-563481D01*
X-7704405Y-582529D01*
X-7713929Y-592052D01*
X-7732976Y-601576D01*
X-7761548Y-601576D01*
X-7580595Y-601576D02*
X-7599643Y-592052D01*
X-7609167Y-573005D01*
X-7609167Y-401576D01*
X-7428214Y-592052D02*
X-7447262Y-601576D01*
X-7485357Y-601576D01*
X-7504405Y-592052D01*
X-7513929Y-573005D01*
X-7513929Y-496814D01*
X-7504405Y-477767D01*
X-7485357Y-468243D01*
X-7447262Y-468243D01*
X-7428214Y-477767D01*
X-7418690Y-496814D01*
X-7418690Y-515862D01*
X-7513929Y-534910D01*
X-7342500Y-592052D02*
X-7323452Y-601576D01*
X-7285357Y-601576D01*
X-7266310Y-592052D01*
X-7256786Y-573005D01*
X-7256786Y-563481D01*
X-7266310Y-544433D01*
X-7285357Y-534910D01*
X-7313929Y-534910D01*
X-7332976Y-525386D01*
X-7342500Y-506338D01*
X-7342500Y-496814D01*
X-7332976Y-477767D01*
X-7313929Y-468243D01*
X-7285357Y-468243D01*
X-7266310Y-477767D01*
X-7190119Y-677767D02*
X-7180595Y-668243D01*
X-7161548Y-639671D01*
X-7152024Y-620624D01*
X-7142500Y-592052D01*
X-7132976Y-544433D01*
X-7132976Y-506338D01*
X-7142500Y-458719D01*
X-7152024Y-430148D01*
X-7161548Y-411100D01*
X-7180595Y-382528D01*
X-7190119Y-373005D01*
D16*
X-12197500Y-820100D02*
X-12152500Y-775100D01*
X-12197500Y-730100D01*
X-12242500Y-775100D01*
X-12197500Y-820100D01*
D11*
X-11856786Y-665576D02*
X-11837738Y-665576D01*
X-11818690Y-675100D01*
X-11809167Y-684624D01*
X-11799643Y-703671D01*
X-11790119Y-741767D01*
X-11790119Y-789386D01*
X-11799643Y-827481D01*
X-11809167Y-846528D01*
X-11818690Y-856052D01*
X-11837738Y-865576D01*
X-11856786Y-865576D01*
X-11875833Y-856052D01*
X-11885357Y-846528D01*
X-11894881Y-827481D01*
X-11904405Y-789386D01*
X-11904405Y-741767D01*
X-11894881Y-703671D01*
X-11885357Y-684624D01*
X-11875833Y-675100D01*
X-11856786Y-665576D01*
X-11704405Y-846528D02*
X-11694881Y-856052D01*
X-11704405Y-865576D01*
X-11713929Y-856052D01*
X-11704405Y-846528D01*
X-11704405Y-865576D01*
X-11599643Y-865576D02*
X-11561548Y-865576D01*
X-11542500Y-856052D01*
X-11532976Y-846528D01*
X-11513929Y-817957D01*
X-11504405Y-779862D01*
X-11504405Y-703671D01*
X-11513929Y-684624D01*
X-11523452Y-675100D01*
X-11542500Y-665576D01*
X-11580595Y-665576D01*
X-11599643Y-675100D01*
X-11609167Y-684624D01*
X-11618690Y-703671D01*
X-11618690Y-751290D01*
X-11609167Y-770338D01*
X-11599643Y-779862D01*
X-11580595Y-789386D01*
X-11542500Y-789386D01*
X-11523452Y-779862D01*
X-11513929Y-770338D01*
X-11504405Y-751290D01*
X-11380595Y-665576D02*
X-11361548Y-665576D01*
X-11342500Y-675100D01*
X-11332976Y-684624D01*
X-11323452Y-703671D01*
X-11313929Y-741767D01*
X-11313929Y-789386D01*
X-11323452Y-827481D01*
X-11332976Y-846528D01*
X-11342500Y-856052D01*
X-11361548Y-865576D01*
X-11380595Y-865576D01*
X-11399643Y-856052D01*
X-11409167Y-846528D01*
X-11418690Y-827481D01*
X-11428214Y-789386D01*
X-11428214Y-741767D01*
X-11418690Y-703671D01*
X-11409167Y-684624D01*
X-11399643Y-675100D01*
X-11380595Y-665576D01*
X-11190119Y-665576D02*
X-11171072Y-665576D01*
X-11152024Y-675100D01*
X-11142500Y-684624D01*
X-11132976Y-703671D01*
X-11123452Y-741767D01*
X-11123452Y-789386D01*
X-11132976Y-827481D01*
X-11142500Y-846528D01*
X-11152024Y-856052D01*
X-11171072Y-865576D01*
X-11190119Y-865576D01*
X-11209167Y-856052D01*
X-11218690Y-846528D01*
X-11228214Y-827481D01*
X-11237738Y-789386D01*
X-11237738Y-741767D01*
X-11228214Y-703671D01*
X-11218690Y-684624D01*
X-11209167Y-675100D01*
X-11190119Y-665576D01*
X-11037738Y-865576D02*
X-11037738Y-732243D01*
X-11037738Y-751290D02*
X-11028214Y-741767D01*
X-11009167Y-732243D01*
X-10980595Y-732243D01*
X-10961548Y-741767D01*
X-10952024Y-760814D01*
X-10952024Y-865576D01*
X-10952024Y-760814D02*
X-10942500Y-741767D01*
X-10923452Y-732243D01*
X-10894881Y-732243D01*
X-10875833Y-741767D01*
X-10866310Y-760814D01*
X-10866310Y-865576D01*
X-10771072Y-865576D02*
X-10771072Y-732243D01*
X-10771072Y-751290D02*
X-10761548Y-741767D01*
X-10742500Y-732243D01*
X-10713929Y-732243D01*
X-10694881Y-741767D01*
X-10685357Y-760814D01*
X-10685357Y-865576D01*
X-10685357Y-760814D02*
X-10675833Y-741767D01*
X-10656786Y-732243D01*
X-10628214Y-732243D01*
X-10609167Y-741767D01*
X-10599643Y-760814D01*
X-10599643Y-865576D01*
X-10209167Y-656052D02*
X-10380595Y-913195D01*
X-9952024Y-665576D02*
X-9932976Y-665576D01*
X-9913929Y-675100D01*
X-9904405Y-684624D01*
X-9894881Y-703671D01*
X-9885357Y-741767D01*
X-9885357Y-789386D01*
X-9894881Y-827481D01*
X-9904405Y-846528D01*
X-9913929Y-856052D01*
X-9932976Y-865576D01*
X-9952024Y-865576D01*
X-9971072Y-856052D01*
X-9980595Y-846528D01*
X-9990119Y-827481D01*
X-9999643Y-789386D01*
X-9999643Y-741767D01*
X-9990119Y-703671D01*
X-9980595Y-684624D01*
X-9971072Y-675100D01*
X-9952024Y-665576D01*
X-9799643Y-846528D02*
X-9790119Y-856052D01*
X-9799643Y-865576D01*
X-9809167Y-856052D01*
X-9799643Y-846528D01*
X-9799643Y-865576D01*
X-9666310Y-665576D02*
X-9647262Y-665576D01*
X-9628214Y-675100D01*
X-9618691Y-684624D01*
X-9609167Y-703671D01*
X-9599643Y-741767D01*
X-9599643Y-789386D01*
X-9609167Y-827481D01*
X-9618691Y-846528D01*
X-9628214Y-856052D01*
X-9647262Y-865576D01*
X-9666310Y-865576D01*
X-9685357Y-856052D01*
X-9694881Y-846528D01*
X-9704405Y-827481D01*
X-9713929Y-789386D01*
X-9713929Y-741767D01*
X-9704405Y-703671D01*
X-9694881Y-684624D01*
X-9685357Y-675100D01*
X-9666310Y-665576D01*
X-9532976Y-665576D02*
X-9409167Y-665576D01*
X-9475833Y-741767D01*
X-9447262Y-741767D01*
X-9428214Y-751290D01*
X-9418691Y-760814D01*
X-9409167Y-779862D01*
X-9409167Y-827481D01*
X-9418691Y-846528D01*
X-9428214Y-856052D01*
X-9447262Y-865576D01*
X-9504405Y-865576D01*
X-9523452Y-856052D01*
X-9532976Y-846528D01*
X-9228214Y-665576D02*
X-9323452Y-665576D01*
X-9332976Y-760814D01*
X-9323452Y-751290D01*
X-9304405Y-741767D01*
X-9256786Y-741767D01*
X-9237738Y-751290D01*
X-9228214Y-760814D01*
X-9218691Y-779862D01*
X-9218691Y-827481D01*
X-9228214Y-846528D01*
X-9237738Y-856052D01*
X-9256786Y-865576D01*
X-9304405Y-865576D01*
X-9323452Y-856052D01*
X-9332976Y-846528D01*
X-9047262Y-732243D02*
X-9047262Y-865576D01*
X-9094881Y-656052D02*
X-9142500Y-798909D01*
X-9018691Y-798909D01*
X-8952024Y-665576D02*
X-8952024Y-703671D01*
X-8875833Y-665576D02*
X-8875833Y-703671D01*
X-8580595Y-941767D02*
X-8590119Y-932243D01*
X-8609167Y-903671D01*
X-8618691Y-884624D01*
X-8628214Y-856052D01*
X-8637738Y-808433D01*
X-8637738Y-770338D01*
X-8628214Y-722719D01*
X-8618691Y-694148D01*
X-8609167Y-675100D01*
X-8590119Y-646529D01*
X-8580595Y-637005D01*
X-8513929Y-684624D02*
X-8504405Y-675100D01*
X-8485357Y-665576D01*
X-8437738Y-665576D01*
X-8418691Y-675100D01*
X-8409167Y-684624D01*
X-8399643Y-703671D01*
X-8399643Y-722719D01*
X-8409167Y-751290D01*
X-8523452Y-865576D01*
X-8399643Y-865576D01*
X-8275833Y-665576D02*
X-8256786Y-665576D01*
X-8237738Y-675100D01*
X-8228214Y-684624D01*
X-8218690Y-703671D01*
X-8209167Y-741767D01*
X-8209167Y-789386D01*
X-8218690Y-827481D01*
X-8228214Y-846528D01*
X-8237738Y-856052D01*
X-8256786Y-865576D01*
X-8275833Y-865576D01*
X-8294881Y-856052D01*
X-8304405Y-846528D01*
X-8313929Y-827481D01*
X-8323452Y-789386D01*
X-8323452Y-741767D01*
X-8313929Y-703671D01*
X-8304405Y-684624D01*
X-8294881Y-675100D01*
X-8275833Y-665576D01*
X-7971071Y-865576D02*
X-7971071Y-665576D01*
X-7885357Y-865576D02*
X-7885357Y-760814D01*
X-7894881Y-741767D01*
X-7913929Y-732243D01*
X-7942500Y-732243D01*
X-7961548Y-741767D01*
X-7971071Y-751290D01*
X-7761548Y-865576D02*
X-7780595Y-856052D01*
X-7790119Y-846528D01*
X-7799643Y-827481D01*
X-7799643Y-770338D01*
X-7790119Y-751290D01*
X-7780595Y-741767D01*
X-7761548Y-732243D01*
X-7732976Y-732243D01*
X-7713929Y-741767D01*
X-7704405Y-751290D01*
X-7694881Y-770338D01*
X-7694881Y-827481D01*
X-7704405Y-846528D01*
X-7713929Y-856052D01*
X-7732976Y-865576D01*
X-7761548Y-865576D01*
X-7580595Y-865576D02*
X-7599643Y-856052D01*
X-7609167Y-837005D01*
X-7609167Y-665576D01*
X-7428214Y-856052D02*
X-7447262Y-865576D01*
X-7485357Y-865576D01*
X-7504405Y-856052D01*
X-7513929Y-837005D01*
X-7513929Y-760814D01*
X-7504405Y-741767D01*
X-7485357Y-732243D01*
X-7447262Y-732243D01*
X-7428214Y-741767D01*
X-7418690Y-760814D01*
X-7418690Y-779862D01*
X-7513929Y-798909D01*
X-7342500Y-856052D02*
X-7323452Y-865576D01*
X-7285357Y-865576D01*
X-7266310Y-856052D01*
X-7256786Y-837005D01*
X-7256786Y-827481D01*
X-7266310Y-808433D01*
X-7285357Y-798909D01*
X-7313929Y-798909D01*
X-7332976Y-789386D01*
X-7342500Y-770338D01*
X-7342500Y-760814D01*
X-7332976Y-741767D01*
X-7313929Y-732243D01*
X-7285357Y-732243D01*
X-7266310Y-741767D01*
X-7190119Y-941767D02*
X-7180595Y-932243D01*
X-7161548Y-903671D01*
X-7152024Y-884624D01*
X-7142500Y-856052D01*
X-7132976Y-808433D01*
X-7132976Y-770338D01*
X-7142500Y-722719D01*
X-7152024Y-694148D01*
X-7161548Y-675100D01*
X-7180595Y-646529D01*
X-7190119Y-637005D01*
D17*
X-12254100Y-988300D02*
X-12152500Y-1089900D01*
X-12152500Y-988300D02*
X-12254100Y-1089900D01*
X-12152500Y-1039100D02*
G75*
G03*
X-12152500Y-1039100I-50800J0D01*
G01*
D11*
X-11790119Y-1129576D02*
X-11904405Y-1129576D01*
X-11847262Y-1129576D02*
X-11847262Y-929576D01*
X-11866310Y-958148D01*
X-11885357Y-977195D01*
X-11904405Y-986719D01*
X-11704405Y-1110529D02*
X-11694881Y-1120052D01*
X-11704405Y-1129576D01*
X-11713929Y-1120052D01*
X-11704405Y-1110529D01*
X-11704405Y-1129576D01*
X-11571071Y-929576D02*
X-11552024Y-929576D01*
X-11532976Y-939100D01*
X-11523452Y-948624D01*
X-11513929Y-967671D01*
X-11504405Y-1005767D01*
X-11504405Y-1053386D01*
X-11513929Y-1091481D01*
X-11523452Y-1110529D01*
X-11532976Y-1120052D01*
X-11552024Y-1129576D01*
X-11571071Y-1129576D01*
X-11590119Y-1120052D01*
X-11599643Y-1110529D01*
X-11609167Y-1091481D01*
X-11618690Y-1053386D01*
X-11618690Y-1005767D01*
X-11609167Y-967671D01*
X-11599643Y-948624D01*
X-11590119Y-939100D01*
X-11571071Y-929576D01*
X-11313929Y-1129576D02*
X-11428214Y-1129576D01*
X-11371071Y-1129576D02*
X-11371071Y-929576D01*
X-11390119Y-958148D01*
X-11409167Y-977195D01*
X-11428214Y-986719D01*
X-11142500Y-929576D02*
X-11180595Y-929576D01*
X-11199643Y-939100D01*
X-11209167Y-948624D01*
X-11228214Y-977195D01*
X-11237738Y-1015290D01*
X-11237738Y-1091481D01*
X-11228214Y-1110529D01*
X-11218690Y-1120052D01*
X-11199643Y-1129576D01*
X-11161548Y-1129576D01*
X-11142500Y-1120052D01*
X-11132976Y-1110529D01*
X-11123452Y-1091481D01*
X-11123452Y-1043862D01*
X-11132976Y-1024814D01*
X-11142500Y-1015290D01*
X-11161548Y-1005767D01*
X-11199643Y-1005767D01*
X-11218690Y-1015290D01*
X-11228214Y-1024814D01*
X-11237738Y-1043862D01*
X-11037738Y-1129576D02*
X-11037738Y-996243D01*
X-11037738Y-1015290D02*
X-11028214Y-1005767D01*
X-11009167Y-996243D01*
X-10980595Y-996243D01*
X-10961548Y-1005767D01*
X-10952024Y-1024814D01*
X-10952024Y-1129576D01*
X-10952024Y-1024814D02*
X-10942500Y-1005767D01*
X-10923452Y-996243D01*
X-10894881Y-996243D01*
X-10875833Y-1005767D01*
X-10866310Y-1024814D01*
X-10866310Y-1129576D01*
X-10771072Y-1129576D02*
X-10771072Y-996243D01*
X-10771072Y-1015290D02*
X-10761548Y-1005767D01*
X-10742500Y-996243D01*
X-10713929Y-996243D01*
X-10694881Y-1005767D01*
X-10685357Y-1024814D01*
X-10685357Y-1129576D01*
X-10685357Y-1024814D02*
X-10675833Y-1005767D01*
X-10656786Y-996243D01*
X-10628214Y-996243D01*
X-10609167Y-1005767D01*
X-10599643Y-1024814D01*
X-10599643Y-1129576D01*
X-10209167Y-920052D02*
X-10380595Y-1177195D01*
X-9952024Y-929576D02*
X-9932976Y-929576D01*
X-9913929Y-939100D01*
X-9904405Y-948624D01*
X-9894881Y-967671D01*
X-9885357Y-1005767D01*
X-9885357Y-1053386D01*
X-9894881Y-1091481D01*
X-9904405Y-1110529D01*
X-9913929Y-1120052D01*
X-9932976Y-1129576D01*
X-9952024Y-1129576D01*
X-9971072Y-1120052D01*
X-9980595Y-1110529D01*
X-9990119Y-1091481D01*
X-9999643Y-1053386D01*
X-9999643Y-1005767D01*
X-9990119Y-967671D01*
X-9980595Y-948624D01*
X-9971072Y-939100D01*
X-9952024Y-929576D01*
X-9799643Y-1110529D02*
X-9790119Y-1120052D01*
X-9799643Y-1129576D01*
X-9809167Y-1120052D01*
X-9799643Y-1110529D01*
X-9799643Y-1129576D01*
X-9666310Y-929576D02*
X-9647262Y-929576D01*
X-9628214Y-939100D01*
X-9618691Y-948624D01*
X-9609167Y-967671D01*
X-9599643Y-1005767D01*
X-9599643Y-1053386D01*
X-9609167Y-1091481D01*
X-9618691Y-1110529D01*
X-9628214Y-1120052D01*
X-9647262Y-1129576D01*
X-9666310Y-1129576D01*
X-9685357Y-1120052D01*
X-9694881Y-1110529D01*
X-9704405Y-1091481D01*
X-9713929Y-1053386D01*
X-9713929Y-1005767D01*
X-9704405Y-967671D01*
X-9694881Y-948624D01*
X-9685357Y-939100D01*
X-9666310Y-929576D01*
X-9428214Y-996243D02*
X-9428214Y-1129576D01*
X-9475833Y-920052D02*
X-9523452Y-1062910D01*
X-9399643Y-1062910D01*
X-9285357Y-929576D02*
X-9266310Y-929576D01*
X-9247262Y-939100D01*
X-9237738Y-948624D01*
X-9228214Y-967671D01*
X-9218691Y-1005767D01*
X-9218691Y-1053386D01*
X-9228214Y-1091481D01*
X-9237738Y-1110529D01*
X-9247262Y-1120052D01*
X-9266310Y-1129576D01*
X-9285357Y-1129576D01*
X-9304405Y-1120052D01*
X-9313929Y-1110529D01*
X-9323452Y-1091481D01*
X-9332976Y-1053386D01*
X-9332976Y-1005767D01*
X-9323452Y-967671D01*
X-9313929Y-948624D01*
X-9304405Y-939100D01*
X-9285357Y-929576D01*
X-9094881Y-929576D02*
X-9075833Y-929576D01*
X-9056786Y-939100D01*
X-9047262Y-948624D01*
X-9037738Y-967671D01*
X-9028214Y-1005767D01*
X-9028214Y-1053386D01*
X-9037738Y-1091481D01*
X-9047262Y-1110529D01*
X-9056786Y-1120052D01*
X-9075833Y-1129576D01*
X-9094881Y-1129576D01*
X-9113929Y-1120052D01*
X-9123452Y-1110529D01*
X-9132976Y-1091481D01*
X-9142500Y-1053386D01*
X-9142500Y-1005767D01*
X-9132976Y-967671D01*
X-9123452Y-948624D01*
X-9113929Y-939100D01*
X-9094881Y-929576D01*
X-8952024Y-929576D02*
X-8952024Y-967671D01*
X-8875833Y-929576D02*
X-8875833Y-967671D01*
X-8580595Y-1205767D02*
X-8590119Y-1196243D01*
X-8609167Y-1167671D01*
X-8618691Y-1148624D01*
X-8628214Y-1120052D01*
X-8637738Y-1072433D01*
X-8637738Y-1034338D01*
X-8628214Y-986719D01*
X-8618691Y-958148D01*
X-8609167Y-939100D01*
X-8590119Y-910528D01*
X-8580595Y-901005D01*
X-8418691Y-929576D02*
X-8456786Y-929576D01*
X-8475833Y-939100D01*
X-8485357Y-948624D01*
X-8504405Y-977195D01*
X-8513929Y-1015290D01*
X-8513929Y-1091481D01*
X-8504405Y-1110529D01*
X-8494881Y-1120052D01*
X-8475833Y-1129576D01*
X-8437738Y-1129576D01*
X-8418691Y-1120052D01*
X-8409167Y-1110529D01*
X-8399643Y-1091481D01*
X-8399643Y-1043862D01*
X-8409167Y-1024814D01*
X-8418691Y-1015290D01*
X-8437738Y-1005767D01*
X-8475833Y-1005767D01*
X-8494881Y-1015290D01*
X-8504405Y-1024814D01*
X-8513929Y-1043862D01*
X-8161548Y-1129576D02*
X-8161548Y-929576D01*
X-8075833Y-1129576D02*
X-8075833Y-1024814D01*
X-8085357Y-1005767D01*
X-8104405Y-996243D01*
X-8132976Y-996243D01*
X-8152024Y-1005767D01*
X-8161548Y-1015290D01*
X-7952024Y-1129576D02*
X-7971071Y-1120052D01*
X-7980595Y-1110529D01*
X-7990119Y-1091481D01*
X-7990119Y-1034338D01*
X-7980595Y-1015290D01*
X-7971071Y-1005767D01*
X-7952024Y-996243D01*
X-7923452Y-996243D01*
X-7904405Y-1005767D01*
X-7894881Y-1015290D01*
X-7885357Y-1034338D01*
X-7885357Y-1091481D01*
X-7894881Y-1110529D01*
X-7904405Y-1120052D01*
X-7923452Y-1129576D01*
X-7952024Y-1129576D01*
X-7771071Y-1129576D02*
X-7790119Y-1120052D01*
X-7799643Y-1101005D01*
X-7799643Y-929576D01*
X-7618690Y-1120052D02*
X-7637738Y-1129576D01*
X-7675833Y-1129576D01*
X-7694881Y-1120052D01*
X-7704405Y-1101005D01*
X-7704405Y-1024814D01*
X-7694881Y-1005767D01*
X-7675833Y-996243D01*
X-7637738Y-996243D01*
X-7618690Y-1005767D01*
X-7609167Y-1024814D01*
X-7609167Y-1043862D01*
X-7704405Y-1062910D01*
X-7532976Y-1120052D02*
X-7513929Y-1129576D01*
X-7475833Y-1129576D01*
X-7456786Y-1120052D01*
X-7447262Y-1101005D01*
X-7447262Y-1091481D01*
X-7456786Y-1072433D01*
X-7475833Y-1062910D01*
X-7504405Y-1062910D01*
X-7523452Y-1053386D01*
X-7532976Y-1034338D01*
X-7532976Y-1024814D01*
X-7523452Y-1005767D01*
X-7504405Y-996243D01*
X-7475833Y-996243D01*
X-7456786Y-1005767D01*
X-7380595Y-1205767D02*
X-7371071Y-1196243D01*
X-7352024Y-1167671D01*
X-7342500Y-1148624D01*
X-7332976Y-1120052D01*
X-7323452Y-1072433D01*
X-7323452Y-1034338D01*
X-7332976Y-986719D01*
X-7342500Y-958148D01*
X-7352024Y-939100D01*
X-7371071Y-910528D01*
X-7380595Y-901005D01*
D18*
X-12266800Y-1245950D02*
X-12152500Y-1360250D01*
X-12152500Y-1245950D02*
X-12266800Y-1360250D01*
X-12209650Y-1245950D02*
X-12209650Y-1360250D01*
X-12266800Y-1303100D02*
X-12152500Y-1303100D01*
D11*
X-11790119Y-1393576D02*
X-11904405Y-1393576D01*
X-11847262Y-1393576D02*
X-11847262Y-1193576D01*
X-11866310Y-1222148D01*
X-11885357Y-1241195D01*
X-11904405Y-1250719D01*
X-11704405Y-1374529D02*
X-11694881Y-1384052D01*
X-11704405Y-1393576D01*
X-11713929Y-1384052D01*
X-11704405Y-1374529D01*
X-11704405Y-1393576D01*
X-11504405Y-1393576D02*
X-11618690Y-1393576D01*
X-11561548Y-1393576D02*
X-11561548Y-1193576D01*
X-11580595Y-1222148D01*
X-11599643Y-1241195D01*
X-11618690Y-1250719D01*
X-11332976Y-1260243D02*
X-11332976Y-1393576D01*
X-11380595Y-1184052D02*
X-11428214Y-1326910D01*
X-11304405Y-1326910D01*
X-11247262Y-1193576D02*
X-11123452Y-1193576D01*
X-11190119Y-1269767D01*
X-11161548Y-1269767D01*
X-11142500Y-1279290D01*
X-11132976Y-1288814D01*
X-11123452Y-1307862D01*
X-11123452Y-1355481D01*
X-11132976Y-1374529D01*
X-11142500Y-1384052D01*
X-11161548Y-1393576D01*
X-11218690Y-1393576D01*
X-11237738Y-1384052D01*
X-11247262Y-1374529D01*
X-11037738Y-1393576D02*
X-11037738Y-1260243D01*
X-11037738Y-1279290D02*
X-11028214Y-1269767D01*
X-11009167Y-1260243D01*
X-10980595Y-1260243D01*
X-10961548Y-1269767D01*
X-10952024Y-1288814D01*
X-10952024Y-1393576D01*
X-10952024Y-1288814D02*
X-10942500Y-1269767D01*
X-10923452Y-1260243D01*
X-10894881Y-1260243D01*
X-10875833Y-1269767D01*
X-10866310Y-1288814D01*
X-10866310Y-1393576D01*
X-10771072Y-1393576D02*
X-10771072Y-1260243D01*
X-10771072Y-1279290D02*
X-10761548Y-1269767D01*
X-10742500Y-1260243D01*
X-10713929Y-1260243D01*
X-10694881Y-1269767D01*
X-10685357Y-1288814D01*
X-10685357Y-1393576D01*
X-10685357Y-1288814D02*
X-10675833Y-1269767D01*
X-10656786Y-1260243D01*
X-10628214Y-1260243D01*
X-10609167Y-1269767D01*
X-10599643Y-1288814D01*
X-10599643Y-1393576D01*
X-10209167Y-1184052D02*
X-10380595Y-1441195D01*
X-9952024Y-1193576D02*
X-9932976Y-1193576D01*
X-9913929Y-1203100D01*
X-9904405Y-1212624D01*
X-9894881Y-1231671D01*
X-9885357Y-1269767D01*
X-9885357Y-1317386D01*
X-9894881Y-1355481D01*
X-9904405Y-1374529D01*
X-9913929Y-1384052D01*
X-9932976Y-1393576D01*
X-9952024Y-1393576D01*
X-9971072Y-1384052D01*
X-9980595Y-1374529D01*
X-9990119Y-1355481D01*
X-9999643Y-1317386D01*
X-9999643Y-1269767D01*
X-9990119Y-1231671D01*
X-9980595Y-1212624D01*
X-9971072Y-1203100D01*
X-9952024Y-1193576D01*
X-9799643Y-1374529D02*
X-9790119Y-1384052D01*
X-9799643Y-1393576D01*
X-9809167Y-1384052D01*
X-9799643Y-1374529D01*
X-9799643Y-1393576D01*
X-9666310Y-1193576D02*
X-9647262Y-1193576D01*
X-9628214Y-1203100D01*
X-9618691Y-1212624D01*
X-9609167Y-1231671D01*
X-9599643Y-1269767D01*
X-9599643Y-1317386D01*
X-9609167Y-1355481D01*
X-9618691Y-1374529D01*
X-9628214Y-1384052D01*
X-9647262Y-1393576D01*
X-9666310Y-1393576D01*
X-9685357Y-1384052D01*
X-9694881Y-1374529D01*
X-9704405Y-1355481D01*
X-9713929Y-1317386D01*
X-9713929Y-1269767D01*
X-9704405Y-1231671D01*
X-9694881Y-1212624D01*
X-9685357Y-1203100D01*
X-9666310Y-1193576D01*
X-9428214Y-1260243D02*
X-9428214Y-1393576D01*
X-9475833Y-1184052D02*
X-9523452Y-1326910D01*
X-9399643Y-1326910D01*
X-9228214Y-1193576D02*
X-9323452Y-1193576D01*
X-9332976Y-1288814D01*
X-9323452Y-1279290D01*
X-9304405Y-1269767D01*
X-9256786Y-1269767D01*
X-9237738Y-1279290D01*
X-9228214Y-1288814D01*
X-9218691Y-1307862D01*
X-9218691Y-1355481D01*
X-9228214Y-1374529D01*
X-9237738Y-1384052D01*
X-9256786Y-1393576D01*
X-9304405Y-1393576D01*
X-9323452Y-1384052D01*
X-9332976Y-1374529D01*
X-9094881Y-1193576D02*
X-9075833Y-1193576D01*
X-9056786Y-1203100D01*
X-9047262Y-1212624D01*
X-9037738Y-1231671D01*
X-9028214Y-1269767D01*
X-9028214Y-1317386D01*
X-9037738Y-1355481D01*
X-9047262Y-1374529D01*
X-9056786Y-1384052D01*
X-9075833Y-1393576D01*
X-9094881Y-1393576D01*
X-9113929Y-1384052D01*
X-9123452Y-1374529D01*
X-9132976Y-1355481D01*
X-9142500Y-1317386D01*
X-9142500Y-1269767D01*
X-9132976Y-1231671D01*
X-9123452Y-1212624D01*
X-9113929Y-1203100D01*
X-9094881Y-1193576D01*
X-8952024Y-1193576D02*
X-8952024Y-1231671D01*
X-8875833Y-1193576D02*
X-8875833Y-1231671D01*
X-8580595Y-1469767D02*
X-8590119Y-1460243D01*
X-8609167Y-1431671D01*
X-8618691Y-1412624D01*
X-8628214Y-1384052D01*
X-8637738Y-1336433D01*
X-8637738Y-1298338D01*
X-8628214Y-1250719D01*
X-8618691Y-1222148D01*
X-8609167Y-1203100D01*
X-8590119Y-1174529D01*
X-8580595Y-1165005D01*
X-8523452Y-1193576D02*
X-8399643Y-1193576D01*
X-8466310Y-1269767D01*
X-8437738Y-1269767D01*
X-8418691Y-1279290D01*
X-8409167Y-1288814D01*
X-8399643Y-1307862D01*
X-8399643Y-1355481D01*
X-8409167Y-1374529D01*
X-8418691Y-1384052D01*
X-8437738Y-1393576D01*
X-8494881Y-1393576D01*
X-8513929Y-1384052D01*
X-8523452Y-1374529D01*
X-8228214Y-1260243D02*
X-8228214Y-1393576D01*
X-8275833Y-1184052D02*
X-8323452Y-1326910D01*
X-8199643Y-1326910D01*
X-7971071Y-1393576D02*
X-7971071Y-1193576D01*
X-7885357Y-1393576D02*
X-7885357Y-1288814D01*
X-7894881Y-1269767D01*
X-7913929Y-1260243D01*
X-7942500Y-1260243D01*
X-7961548Y-1269767D01*
X-7971071Y-1279290D01*
X-7761548Y-1393576D02*
X-7780595Y-1384052D01*
X-7790119Y-1374529D01*
X-7799643Y-1355481D01*
X-7799643Y-1298338D01*
X-7790119Y-1279290D01*
X-7780595Y-1269767D01*
X-7761548Y-1260243D01*
X-7732976Y-1260243D01*
X-7713929Y-1269767D01*
X-7704405Y-1279290D01*
X-7694881Y-1298338D01*
X-7694881Y-1355481D01*
X-7704405Y-1374529D01*
X-7713929Y-1384052D01*
X-7732976Y-1393576D01*
X-7761548Y-1393576D01*
X-7580595Y-1393576D02*
X-7599643Y-1384052D01*
X-7609167Y-1365005D01*
X-7609167Y-1193576D01*
X-7428214Y-1384052D02*
X-7447262Y-1393576D01*
X-7485357Y-1393576D01*
X-7504405Y-1384052D01*
X-7513929Y-1365005D01*
X-7513929Y-1288814D01*
X-7504405Y-1269767D01*
X-7485357Y-1260243D01*
X-7447262Y-1260243D01*
X-7428214Y-1269767D01*
X-7418690Y-1288814D01*
X-7418690Y-1307862D01*
X-7513929Y-1326910D01*
X-7342500Y-1384052D02*
X-7323452Y-1393576D01*
X-7285357Y-1393576D01*
X-7266310Y-1384052D01*
X-7256786Y-1365005D01*
X-7256786Y-1355481D01*
X-7266310Y-1336433D01*
X-7285357Y-1326910D01*
X-7313929Y-1326910D01*
X-7332976Y-1317386D01*
X-7342500Y-1298338D01*
X-7342500Y-1288814D01*
X-7332976Y-1269767D01*
X-7313929Y-1260243D01*
X-7285357Y-1260243D01*
X-7266310Y-1269767D01*
X-7190119Y-1469767D02*
X-7180595Y-1460243D01*
X-7161548Y-1431671D01*
X-7152024Y-1412624D01*
X-7142500Y-1384052D01*
X-7132976Y-1336433D01*
X-7132976Y-1298338D01*
X-7142500Y-1250719D01*
X-7152024Y-1222148D01*
X-7161548Y-1203100D01*
X-7180595Y-1174529D01*
X-7190119Y-1165005D01*
X-12352500Y-1467100D02*
X-12152500Y-1667100D01*
X-12152500Y-1467100D02*
X-12352500Y-1667100D01*
X-12181789Y-1637811D02*
X-12181789Y-1496389D01*
X-12323211Y-1496389D01*
X-12323211Y-1637811D01*
X-12181789Y-1637811D01*
X-11904405Y-1476624D02*
X-11894881Y-1467100D01*
X-11875833Y-1457576D01*
X-11828214Y-1457576D01*
X-11809167Y-1467100D01*
X-11799643Y-1476624D01*
X-11790119Y-1495671D01*
X-11790119Y-1514719D01*
X-11799643Y-1543290D01*
X-11913929Y-1657576D01*
X-11790119Y-1657576D01*
X-11704405Y-1638528D02*
X-11694881Y-1648052D01*
X-11704405Y-1657576D01*
X-11713929Y-1648052D01*
X-11704405Y-1638528D01*
X-11704405Y-1657576D01*
X-11571071Y-1457576D02*
X-11552024Y-1457576D01*
X-11532976Y-1467100D01*
X-11523452Y-1476624D01*
X-11513929Y-1495671D01*
X-11504405Y-1533767D01*
X-11504405Y-1581386D01*
X-11513929Y-1619481D01*
X-11523452Y-1638528D01*
X-11532976Y-1648052D01*
X-11552024Y-1657576D01*
X-11571071Y-1657576D01*
X-11590119Y-1648052D01*
X-11599643Y-1638528D01*
X-11609167Y-1619481D01*
X-11618690Y-1581386D01*
X-11618690Y-1533767D01*
X-11609167Y-1495671D01*
X-11599643Y-1476624D01*
X-11590119Y-1467100D01*
X-11571071Y-1457576D01*
X-11323452Y-1457576D02*
X-11418690Y-1457576D01*
X-11428214Y-1552814D01*
X-11418690Y-1543290D01*
X-11399643Y-1533767D01*
X-11352024Y-1533767D01*
X-11332976Y-1543290D01*
X-11323452Y-1552814D01*
X-11313929Y-1571862D01*
X-11313929Y-1619481D01*
X-11323452Y-1638528D01*
X-11332976Y-1648052D01*
X-11352024Y-1657576D01*
X-11399643Y-1657576D01*
X-11418690Y-1648052D01*
X-11428214Y-1638528D01*
X-11247262Y-1457576D02*
X-11113929Y-1457576D01*
X-11199643Y-1657576D01*
X-11037738Y-1657576D02*
X-11037738Y-1524243D01*
X-11037738Y-1543290D02*
X-11028214Y-1533767D01*
X-11009167Y-1524243D01*
X-10980595Y-1524243D01*
X-10961548Y-1533767D01*
X-10952024Y-1552814D01*
X-10952024Y-1657576D01*
X-10952024Y-1552814D02*
X-10942500Y-1533767D01*
X-10923452Y-1524243D01*
X-10894881Y-1524243D01*
X-10875833Y-1533767D01*
X-10866310Y-1552814D01*
X-10866310Y-1657576D01*
X-10771072Y-1657576D02*
X-10771072Y-1524243D01*
X-10771072Y-1543290D02*
X-10761548Y-1533767D01*
X-10742500Y-1524243D01*
X-10713929Y-1524243D01*
X-10694881Y-1533767D01*
X-10685357Y-1552814D01*
X-10685357Y-1657576D01*
X-10685357Y-1552814D02*
X-10675833Y-1533767D01*
X-10656786Y-1524243D01*
X-10628214Y-1524243D01*
X-10609167Y-1533767D01*
X-10599643Y-1552814D01*
X-10599643Y-1657576D01*
X-10209167Y-1448052D02*
X-10380595Y-1705195D01*
X-9952024Y-1457576D02*
X-9932976Y-1457576D01*
X-9913929Y-1467100D01*
X-9904405Y-1476624D01*
X-9894881Y-1495671D01*
X-9885357Y-1533767D01*
X-9885357Y-1581386D01*
X-9894881Y-1619481D01*
X-9904405Y-1638528D01*
X-9913929Y-1648052D01*
X-9932976Y-1657576D01*
X-9952024Y-1657576D01*
X-9971072Y-1648052D01*
X-9980595Y-1638528D01*
X-9990119Y-1619481D01*
X-9999643Y-1581386D01*
X-9999643Y-1533767D01*
X-9990119Y-1495671D01*
X-9980595Y-1476624D01*
X-9971072Y-1467100D01*
X-9952024Y-1457576D01*
X-9799643Y-1638528D02*
X-9790119Y-1648052D01*
X-9799643Y-1657576D01*
X-9809167Y-1648052D01*
X-9799643Y-1638528D01*
X-9799643Y-1657576D01*
X-9666310Y-1457576D02*
X-9647262Y-1457576D01*
X-9628214Y-1467100D01*
X-9618691Y-1476624D01*
X-9609167Y-1495671D01*
X-9599643Y-1533767D01*
X-9599643Y-1581386D01*
X-9609167Y-1619481D01*
X-9618691Y-1638528D01*
X-9628214Y-1648052D01*
X-9647262Y-1657576D01*
X-9666310Y-1657576D01*
X-9685357Y-1648052D01*
X-9694881Y-1638528D01*
X-9704405Y-1619481D01*
X-9713929Y-1581386D01*
X-9713929Y-1533767D01*
X-9704405Y-1495671D01*
X-9694881Y-1476624D01*
X-9685357Y-1467100D01*
X-9666310Y-1457576D01*
X-9485357Y-1543290D02*
X-9504405Y-1533767D01*
X-9513929Y-1524243D01*
X-9523452Y-1505195D01*
X-9523452Y-1495671D01*
X-9513929Y-1476624D01*
X-9504405Y-1467100D01*
X-9485357Y-1457576D01*
X-9447262Y-1457576D01*
X-9428214Y-1467100D01*
X-9418691Y-1476624D01*
X-9409167Y-1495671D01*
X-9409167Y-1505195D01*
X-9418691Y-1524243D01*
X-9428214Y-1533767D01*
X-9447262Y-1543290D01*
X-9485357Y-1543290D01*
X-9504405Y-1552814D01*
X-9513929Y-1562338D01*
X-9523452Y-1581386D01*
X-9523452Y-1619481D01*
X-9513929Y-1638528D01*
X-9504405Y-1648052D01*
X-9485357Y-1657576D01*
X-9447262Y-1657576D01*
X-9428214Y-1648052D01*
X-9418691Y-1638528D01*
X-9409167Y-1619481D01*
X-9409167Y-1581386D01*
X-9418691Y-1562338D01*
X-9428214Y-1552814D01*
X-9447262Y-1543290D01*
X-9218691Y-1657576D02*
X-9332976Y-1657576D01*
X-9275833Y-1657576D02*
X-9275833Y-1457576D01*
X-9294881Y-1486148D01*
X-9313929Y-1505195D01*
X-9332976Y-1514719D01*
X-9094881Y-1457576D02*
X-9075833Y-1457576D01*
X-9056786Y-1467100D01*
X-9047262Y-1476624D01*
X-9037738Y-1495671D01*
X-9028214Y-1533767D01*
X-9028214Y-1581386D01*
X-9037738Y-1619481D01*
X-9047262Y-1638528D01*
X-9056786Y-1648052D01*
X-9075833Y-1657576D01*
X-9094881Y-1657576D01*
X-9113929Y-1648052D01*
X-9123452Y-1638528D01*
X-9132976Y-1619481D01*
X-9142500Y-1581386D01*
X-9142500Y-1533767D01*
X-9132976Y-1495671D01*
X-9123452Y-1476624D01*
X-9113929Y-1467100D01*
X-9094881Y-1457576D01*
X-8952024Y-1457576D02*
X-8952024Y-1495671D01*
X-8875833Y-1457576D02*
X-8875833Y-1495671D01*
X-8580595Y-1733767D02*
X-8590119Y-1724243D01*
X-8609167Y-1695671D01*
X-8618691Y-1676624D01*
X-8628214Y-1648052D01*
X-8637738Y-1600433D01*
X-8637738Y-1562338D01*
X-8628214Y-1514719D01*
X-8618691Y-1486148D01*
X-8609167Y-1467100D01*
X-8590119Y-1438528D01*
X-8580595Y-1429005D01*
X-8399643Y-1657576D02*
X-8513929Y-1657576D01*
X-8456786Y-1657576D02*
X-8456786Y-1457576D01*
X-8475833Y-1486148D01*
X-8494881Y-1505195D01*
X-8513929Y-1514719D01*
X-8275833Y-1457576D02*
X-8256786Y-1457576D01*
X-8237738Y-1467100D01*
X-8228214Y-1476624D01*
X-8218690Y-1495671D01*
X-8209167Y-1533767D01*
X-8209167Y-1581386D01*
X-8218690Y-1619481D01*
X-8228214Y-1638528D01*
X-8237738Y-1648052D01*
X-8256786Y-1657576D01*
X-8275833Y-1657576D01*
X-8294881Y-1648052D01*
X-8304405Y-1638528D01*
X-8313929Y-1619481D01*
X-8323452Y-1581386D01*
X-8323452Y-1533767D01*
X-8313929Y-1495671D01*
X-8304405Y-1476624D01*
X-8294881Y-1467100D01*
X-8275833Y-1457576D01*
X-7971071Y-1657576D02*
X-7971071Y-1457576D01*
X-7885357Y-1657576D02*
X-7885357Y-1552814D01*
X-7894881Y-1533767D01*
X-7913929Y-1524243D01*
X-7942500Y-1524243D01*
X-7961548Y-1533767D01*
X-7971071Y-1543290D01*
X-7761548Y-1657576D02*
X-7780595Y-1648052D01*
X-7790119Y-1638528D01*
X-7799643Y-1619481D01*
X-7799643Y-1562338D01*
X-7790119Y-1543290D01*
X-7780595Y-1533767D01*
X-7761548Y-1524243D01*
X-7732976Y-1524243D01*
X-7713929Y-1533767D01*
X-7704405Y-1543290D01*
X-7694881Y-1562338D01*
X-7694881Y-1619481D01*
X-7704405Y-1638528D01*
X-7713929Y-1648052D01*
X-7732976Y-1657576D01*
X-7761548Y-1657576D01*
X-7580595Y-1657576D02*
X-7599643Y-1648052D01*
X-7609167Y-1629005D01*
X-7609167Y-1457576D01*
X-7428214Y-1648052D02*
X-7447262Y-1657576D01*
X-7485357Y-1657576D01*
X-7504405Y-1648052D01*
X-7513929Y-1629005D01*
X-7513929Y-1552814D01*
X-7504405Y-1533767D01*
X-7485357Y-1524243D01*
X-7447262Y-1524243D01*
X-7428214Y-1533767D01*
X-7418690Y-1552814D01*
X-7418690Y-1571862D01*
X-7513929Y-1590909D01*
X-7342500Y-1648052D02*
X-7323452Y-1657576D01*
X-7285357Y-1657576D01*
X-7266310Y-1648052D01*
X-7256786Y-1629005D01*
X-7256786Y-1619481D01*
X-7266310Y-1600433D01*
X-7285357Y-1590909D01*
X-7313929Y-1590909D01*
X-7332976Y-1581386D01*
X-7342500Y-1562338D01*
X-7342500Y-1552814D01*
X-7332976Y-1533767D01*
X-7313929Y-1524243D01*
X-7285357Y-1524243D01*
X-7266310Y-1533767D01*
X-7190119Y-1733767D02*
X-7180595Y-1724243D01*
X-7161548Y-1695671D01*
X-7152024Y-1676624D01*
X-7142500Y-1648052D01*
X-7132976Y-1600433D01*
X-7132976Y-1562338D01*
X-7142500Y-1514719D01*
X-7152024Y-1486148D01*
X-7161548Y-1467100D01*
X-7180595Y-1438528D01*
X-7190119Y-1429005D01*
M02*
