M48
; DRILL file {KiCad (6.0.5-0)} date Thursday, July 14, 2022 at 04:55:35 PM
; FORMAT={-:-/ absolute / metric / decimal}
; #@! TF.CreationDate,2022-07-14T16:55:35-07:00
; #@! TF.GenerationSoftware,Kicad,Pcbnew,(6.0.5-0)
; #@! TF.FileFunction,MixedPlating,1,2
FMAT,2
METRIC
; #@! TA.AperFunction,Plated,PTH,ViaDrill
T1C0.400
; #@! TA.AperFunction,Plated,PTH,ComponentDrill
T2C0.508
; #@! TA.AperFunction,Plated,PTH,ComponentDrill
T3C0.800
; #@! TA.AperFunction,Plated,PTH,ComponentDrill
T4C0.889
; #@! TA.AperFunction,Plated,PTH,ComponentDrill
T5C0.900
; #@! TA.AperFunction,Plated,PTH,ComponentDrill
T6C1.016
; #@! TA.AperFunction,Plated,PTH,ComponentDrill
T7C1.143
; #@! TA.AperFunction,Plated,PTH,ComponentDrill
T8C2.057
%
G90
G05
T1
X-117.178Y106.847
X-113.358Y62.307
X-113.248Y78.507
X-112.038Y48.467
X-111.347Y74.248
X-111.258Y101.127
X-111.188Y107.707
X-111.1Y71.428
X-110.856Y31.122
X-110.808Y99.467
X-110.619Y56.897
X-110.448Y90.827
X-110.068Y22.847
X-109.875Y79.52
X-109.629Y48.312
X-109.068Y36.502
X-109.068Y28.637
X-108.138Y96.957
X-108.048Y85.767
X-108.008Y67.217
X-107.988Y64.637
X-107.918Y65.877
X-107.858Y83.817
X-107.485Y31.322
X-107.478Y35.387
X-107.433Y71.103
X-107.038Y76.037
X-107.028Y33.857
X-106.998Y24.197
X-106.978Y93.037
X-106.198Y53.667
X-106.088Y62.667
X-106.067Y59.481
X-105.565Y77.416
X-105.491Y84.73
X-105.218Y86.457
X-105.081Y73.205
X-104.764Y20.718
X-104.748Y68.577
X-104.742Y22.487
X-104.694Y52.111
X-104.628Y61.237
X-104.618Y15.787
X-104.292Y19.837
X-104.198Y67.057
X-104.098Y47.627
X-104.028Y73.517
X-103.958Y80.997
X-103.878Y37.847
X-103.795Y56.627
X-103.748Y82.767
X-103.669Y51.017
X-103.578Y85.917
X-103.454Y45.722
X-102.958Y14.037
X-102.938Y73.457
X-102.729Y61.166
X-102.678Y27.687
X-102.638Y15.537
X-102.478Y92.537
X-102.418Y88.177
X-102.288Y69.867
X-101.914Y41.136
X-101.888Y94.397
X-101.88Y59.935
X-101.758Y47.507
X-101.757Y67.345
X-101.608Y73.377
X-101.038Y38.927
X-101.034Y65.514
X-100.961Y49.194
X-100.838Y101.347
X-100.648Y59.357
X-100.478Y73.017
X-100.246Y49.893
X-100.181Y42.94
X-100.148Y41.327
X-99.558Y67.132
X-99.518Y52.607
X-99.448Y68.125
X-99.408Y60.857
X-99.248Y93.327
X-99.118Y88.517
X-99.088Y98.397
X-99.072Y45.497
X-99.028Y84.437
X-98.578Y72.897
X-98.519Y49.058
X-98.428Y34.227
X-98.358Y53.987
X-98.258Y83.507
X-98.098Y75.127
X-98.078Y102.117
X-97.748Y38.947
X-97.378Y53.207
X-97.358Y59.097
X-97.335Y37.49
X-97.038Y78.477
X-96.798Y30.797
X-96.598Y69.812
X-96.468Y66.637
X-96.439Y49.802
X-95.871Y83.47
X-95.838Y62.961
X-95.828Y80.017
X-95.618Y57.907
X-95.448Y104.627
X-95.095Y69.793
X-94.658Y95.947
X-94.568Y77.747
X-93.928Y32.167
X-93.168Y49.647
X-93.033Y51.366
X-92.958Y83.327
X-92.308Y96.917
X-92.158Y68.337
X-92.128Y52.817
X-92.088Y50.437
X-91.878Y72.467
X-91.805Y73.564
X-91.428Y108.707
X-91.228Y110.347
X-91.178Y82.307
X-90.828Y35.347
X-90.678Y52.917
X-90.248Y55.827
X-90.208Y114.327
X-89.958Y21.127
X-89.828Y67.377
X-89.528Y75.407
X-89.528Y44.317
X-89.238Y51.167
X-88.638Y70.667
X-88.558Y87.007
X-88.238Y109.037
X-88.228Y12.327
X-87.888Y75.487
X-87.828Y56.187
X-86.988Y16.757
X-85.818Y56.867
X-85.658Y44.077
X-85.158Y31.217
X-84.66Y115.219
X-84.378Y26.047
X-84.052Y113.547
X-84.018Y116.647
X-83.628Y81.027
X-83.628Y38.597
X-83.388Y69.667
X-83.328Y74.557
X-83.078Y114.817
X-82.728Y20.187
X-82.598Y56.857
X-81.818Y68.177
X-81.108Y15.487
X-80.608Y48.557
X-80.458Y43.587
X-80.278Y86.767
X-80.258Y80.437
X-79.951Y99.299
X-79.708Y46.917
X-78.978Y64.727
X-78.898Y114.987
X-78.508Y83.717
X-78.278Y71.247
X-77.938Y52.327
X-77.588Y81.697
X-77.558Y29.497
X-77.248Y69.417
X-77.238Y32.297
X-76.998Y113.357
X-76.948Y34.747
X-76.868Y89.667
X-76.608Y79.007
X-76.038Y58.847
X-75.698Y34.197
X-74.461Y79.421
X-74.144Y57.415
X-73.641Y59.398
X-72.778Y83.367
X-72.678Y42.527
X-72.658Y67.857
X-72.398Y34.117
X-72.388Y114.837
X-72.098Y30.017
X-71.798Y47.087
X-71.058Y69.907
X-70.748Y39.387
X-70.698Y42.397
X-70.394Y78.428
X-70.198Y67.917
X-70.108Y116.097
X-69.848Y88.337
X-69.328Y27.497
X-69.308Y79.337
X-69.238Y83.447
X-69.208Y34.077
X-65.678Y30.837
T2
X-82.468Y107.537
X-79.928Y110.077
X-77.388Y107.537
T3
X-118.68Y27.154
X-118.68Y15.216
X-116.14Y29.694
X-116.14Y24.614
X-116.14Y17.756
X-116.14Y12.676
X-113.6Y29.694
X-113.6Y24.614
X-113.6Y17.756
X-113.6Y12.676
X-111.06Y29.694
X-111.06Y24.614
X-111.06Y17.756
X-111.06Y12.676
X-108.52Y27.154
X-108.52Y15.216
T4
X-116.14Y104.165
X-116.14Y86.512
X-116.14Y68.859
X-116.14Y51.206
X-116.14Y33.553
X-113.6Y104.165
X-113.6Y86.512
X-113.6Y68.859
X-113.6Y51.206
X-113.6Y33.553
X-111.06Y104.165
X-111.06Y86.512
X-111.06Y68.859
X-111.06Y51.206
X-111.06Y33.553
X-95.871Y111.177
X-95.871Y98.477
X-95.871Y85.777
X-95.871Y73.077
X-95.871Y60.377
X-95.871Y47.677
X-95.871Y34.977
X-95.871Y22.277
X-64.324Y114.619
X-64.324Y102.236
X-64.324Y89.854
X-64.324Y77.471
X-64.324Y65.089
X-64.324Y52.706
X-64.324Y40.324
X-64.324Y27.941
X-64.324Y15.559
T5
X-117.997Y46.501
X-115.457Y46.501
X-104.658Y117.977
X-104.658Y115.437
X-104.658Y112.897
X-104.658Y110.357
X-104.658Y107.817
X-104.658Y105.277
X-104.658Y102.737
X-104.658Y100.197
X-102.118Y117.977
X-102.118Y115.437
X-102.118Y112.897
X-102.118Y110.357
X-102.118Y107.817
X-102.118Y105.277
X-102.118Y102.737
X-102.118Y100.197
X-96.378Y117.787
X-93.838Y117.787
T6
X-100.748Y35.687
X-100.748Y33.147
X-100.748Y30.607
X-100.748Y28.067
X-100.748Y25.527
X-100.748Y22.987
T7
X-93.458Y111.177
X-93.458Y98.477
X-93.458Y85.777
X-93.458Y73.077
X-93.458Y60.377
X-93.458Y47.677
X-93.458Y34.977
X-93.458Y22.277
X-84.898Y111.177
X-84.898Y98.477
X-84.898Y85.777
X-84.898Y73.077
X-84.898Y60.377
X-84.898Y47.677
X-84.898Y34.977
X-84.898Y22.277
X-75.297Y114.619
X-75.297Y102.236
X-75.297Y89.854
X-75.297Y77.471
X-75.297Y65.089
X-75.297Y52.706
X-75.297Y40.324
X-75.297Y27.941
X-75.297Y15.559
X-66.737Y114.619
X-66.737Y102.236
X-66.737Y89.854
X-66.737Y77.471
X-66.737Y65.089
X-66.737Y52.706
X-66.737Y40.324
X-66.737Y27.941
X-66.737Y15.559
T8
X-117.995Y111.175
X-117.995Y93.522
X-117.995Y75.869
X-117.995Y58.216
X-117.995Y40.563
X-109.206Y111.175
X-109.206Y93.522
X-109.206Y75.869
X-109.206Y58.216
X-109.206Y40.563
T0
M30
